<svg width="25" height="25" viewBox="0 0 25 25" fill="none" xmlns="http://www.w3.org/2000/svg">
<path d="M20.834 7.29163H4.16732C3.01672 7.29163 2.08398 8.22437 2.08398 9.37496V19.7916C2.08398 20.9422 3.01672 21.875 4.16732 21.875H20.834C21.9846 21.875 22.9173 20.9422 22.9173 19.7916V9.37496C22.9173 8.22437 21.9846 7.29163 20.834 7.29163Z" stroke="#FF862F" stroke-width="2" stroke-linecap="round" stroke-linejoin="round"/>
<path d="M16.6673 21.875V5.20833C16.6673 4.6558 16.4478 4.12589 16.0571 3.73519C15.6664 3.34449 15.1365 3.125 14.584 3.125H10.4173C9.86478 3.125 9.33488 3.34449 8.94418 3.73519C8.55348 4.12589 8.33398 4.6558 8.33398 5.20833V21.875" stroke="#FF862F" stroke-width="2" stroke-linecap="round" stroke-linejoin="round"/>
</svg>
