<svg width="207" height="2" viewBox="0 0 207 2" fill="currentColor" xmlns="http://www.w3.org/2000/svg">
<path d="M0.400391 1.17383C0.400391 0.976888 0.445964 0.827148 0.537109 0.724609C0.629883 0.62207 0.76416 0.570801 0.939941 0.570801C1.11084 0.570801 1.24349 0.621257 1.33789 0.722168C1.43229 0.823079 1.47949 0.973633 1.47949 1.17383C1.47949 1.36751 1.43229 1.51725 1.33789 1.62305C1.24512 1.72721 1.11247 1.7793 0.939941 1.7793C0.765788 1.7793 0.632324 1.7264 0.539551 1.62061C0.446777 1.51318 0.400391 1.36426 0.400391 1.17383ZM5.28027 1.17383C5.28027 0.976888 5.32585 0.827148 5.41699 0.724609C5.50977 0.62207 5.64404 0.570801 5.81982 0.570801C5.99072 0.570801 6.12337 0.621257 6.21777 0.722168C6.31217 0.823079 6.35938 0.973633 6.35938 1.17383C6.35938 1.36751 6.31217 1.51725 6.21777 1.62305C6.125 1.72721 5.99235 1.7793 5.81982 1.7793C5.64567 1.7793 5.51221 1.7264 5.41943 1.62061C5.32666 1.51318 5.28027 1.36426 5.28027 1.17383ZM10.1602 1.17383C10.1602 0.976888 10.2057 0.827148 10.2969 0.724609C10.3896 0.62207 10.5239 0.570801 10.6997 0.570801C10.8706 0.570801 11.0033 0.621257 11.0977 0.722168C11.1921 0.823079 11.2393 0.973633 11.2393 1.17383C11.2393 1.36751 11.1921 1.51725 11.0977 1.62305C11.0049 1.72721 10.8722 1.7793 10.6997 1.7793C10.5256 1.7793 10.3921 1.7264 10.2993 1.62061C10.2065 1.51318 10.1602 1.36426 10.1602 1.17383ZM15.04 1.17383C15.04 0.976888 15.0856 0.827148 15.1768 0.724609C15.2695 0.62207 15.4038 0.570801 15.5796 0.570801C15.7505 0.570801 15.8831 0.621257 15.9775 0.722168C16.0719 0.823079 16.1191 0.973633 16.1191 1.17383C16.1191 1.36751 16.0719 1.51725 15.9775 1.62305C15.8848 1.72721 15.7521 1.7793 15.5796 1.7793C15.4054 1.7793 15.272 1.7264 15.1792 1.62061C15.0864 1.51318 15.04 1.36426 15.04 1.17383ZM19.9199 1.17383C19.9199 0.976888 19.9655 0.827148 20.0566 0.724609C20.1494 0.62207 20.2837 0.570801 20.4595 0.570801C20.6304 0.570801 20.763 0.621257 20.8574 0.722168C20.9518 0.823079 20.999 0.973633 20.999 1.17383C20.999 1.36751 20.9518 1.51725 20.8574 1.62305C20.7646 1.72721 20.632 1.7793 20.4595 1.7793C20.2853 1.7793 20.1519 1.7264 20.0591 1.62061C19.9663 1.51318 19.9199 1.36426 19.9199 1.17383ZM24.7998 1.17383C24.7998 0.976888 24.8454 0.827148 24.9365 0.724609C25.0293 0.62207 25.1636 0.570801 25.3394 0.570801C25.5103 0.570801 25.6429 0.621257 25.7373 0.722168C25.8317 0.823079 25.8789 0.973633 25.8789 1.17383C25.8789 1.36751 25.8317 1.51725 25.7373 1.62305C25.6445 1.72721 25.5119 1.7793 25.3394 1.7793C25.1652 1.7793 25.0317 1.7264 24.939 1.62061C24.8462 1.51318 24.7998 1.36426 24.7998 1.17383ZM29.6797 1.17383C29.6797 0.976888 29.7253 0.827148 29.8164 0.724609C29.9092 0.62207 30.0435 0.570801 30.2192 0.570801C30.3901 0.570801 30.5228 0.621257 30.6172 0.722168C30.7116 0.823079 30.7588 0.973633 30.7588 1.17383C30.7588 1.36751 30.7116 1.51725 30.6172 1.62305C30.5244 1.72721 30.3918 1.7793 30.2192 1.7793C30.0451 1.7793 29.9116 1.7264 29.8188 1.62061C29.7261 1.51318 29.6797 1.36426 29.6797 1.17383ZM34.5596 1.17383C34.5596 0.976888 34.6051 0.827148 34.6963 0.724609C34.7891 0.62207 34.9233 0.570801 35.0991 0.570801C35.27 0.570801 35.4027 0.621257 35.4971 0.722168C35.5915 0.823079 35.6387 0.973633 35.6387 1.17383C35.6387 1.36751 35.5915 1.51725 35.4971 1.62305C35.4043 1.72721 35.2716 1.7793 35.0991 1.7793C34.925 1.7793 34.7915 1.7264 34.6987 1.62061C34.606 1.51318 34.5596 1.36426 34.5596 1.17383ZM39.4395 1.17383C39.4395 0.976888 39.485 0.827148 39.5762 0.724609C39.6689 0.62207 39.8032 0.570801 39.979 0.570801C40.1499 0.570801 40.2826 0.621257 40.377 0.722168C40.4714 0.823079 40.5186 0.973633 40.5186 1.17383C40.5186 1.36751 40.4714 1.51725 40.377 1.62305C40.2842 1.72721 40.1515 1.7793 39.979 1.7793C39.8049 1.7793 39.6714 1.7264 39.5786 1.62061C39.4858 1.51318 39.4395 1.36426 39.4395 1.17383ZM44.3193 1.17383C44.3193 0.976888 44.3649 0.827148 44.4561 0.724609C44.5488 0.62207 44.6831 0.570801 44.8589 0.570801C45.0298 0.570801 45.1624 0.621257 45.2568 0.722168C45.3512 0.823079 45.3984 0.973633 45.3984 1.17383C45.3984 1.36751 45.3512 1.51725 45.2568 1.62305C45.1641 1.72721 45.0314 1.7793 44.8589 1.7793C44.6847 1.7793 44.5513 1.7264 44.4585 1.62061C44.3657 1.51318 44.3193 1.36426 44.3193 1.17383ZM49.1992 1.17383C49.1992 0.976888 49.2448 0.827148 49.3359 0.724609C49.4287 0.62207 49.563 0.570801 49.7388 0.570801C49.9097 0.570801 50.0423 0.621257 50.1367 0.722168C50.2311 0.823079 50.2783 0.973633 50.2783 1.17383C50.2783 1.36751 50.2311 1.51725 50.1367 1.62305C50.0439 1.72721 49.9113 1.7793 49.7388 1.7793C49.5646 1.7793 49.4312 1.7264 49.3384 1.62061C49.2456 1.51318 49.1992 1.36426 49.1992 1.17383ZM54.0791 1.17383C54.0791 0.976888 54.1247 0.827148 54.2158 0.724609C54.3086 0.62207 54.4429 0.570801 54.6187 0.570801C54.7896 0.570801 54.9222 0.621257 55.0166 0.722168C55.111 0.823079 55.1582 0.973633 55.1582 1.17383C55.1582 1.36751 55.111 1.51725 55.0166 1.62305C54.9238 1.72721 54.7912 1.7793 54.6187 1.7793C54.4445 1.7793 54.311 1.7264 54.2183 1.62061C54.1255 1.51318 54.0791 1.36426 54.0791 1.17383ZM58.959 1.17383C58.959 0.976888 59.0046 0.827148 59.0957 0.724609C59.1885 0.62207 59.3228 0.570801 59.4985 0.570801C59.6694 0.570801 59.8021 0.621257 59.8965 0.722168C59.9909 0.823079 60.0381 0.973633 60.0381 1.17383C60.0381 1.36751 59.9909 1.51725 59.8965 1.62305C59.8037 1.72721 59.6711 1.7793 59.4985 1.7793C59.3244 1.7793 59.1909 1.7264 59.0981 1.62061C59.0054 1.51318 58.959 1.36426 58.959 1.17383ZM63.8389 1.17383C63.8389 0.976888 63.8844 0.827148 63.9756 0.724609C64.0684 0.62207 64.2026 0.570801 64.3784 0.570801C64.5493 0.570801 64.682 0.621257 64.7764 0.722168C64.8708 0.823079 64.918 0.973633 64.918 1.17383C64.918 1.36751 64.8708 1.51725 64.7764 1.62305C64.6836 1.72721 64.5509 1.7793 64.3784 1.7793C64.2043 1.7793 64.0708 1.7264 63.978 1.62061C63.8853 1.51318 63.8389 1.36426 63.8389 1.17383ZM68.7188 1.17383C68.7188 0.976888 68.7643 0.827148 68.8555 0.724609C68.9482 0.62207 69.0825 0.570801 69.2583 0.570801C69.4292 0.570801 69.5618 0.621257 69.6562 0.722168C69.7507 0.823079 69.7979 0.973633 69.7979 1.17383C69.7979 1.36751 69.7507 1.51725 69.6562 1.62305C69.5635 1.72721 69.4308 1.7793 69.2583 1.7793C69.0841 1.7793 68.9507 1.7264 68.8579 1.62061C68.7651 1.51318 68.7188 1.36426 68.7188 1.17383ZM73.5986 1.17383C73.5986 0.976888 73.6442 0.827148 73.7354 0.724609C73.8281 0.62207 73.9624 0.570801 74.1382 0.570801C74.3091 0.570801 74.4417 0.621257 74.5361 0.722168C74.6305 0.823079 74.6777 0.973633 74.6777 1.17383C74.6777 1.36751 74.6305 1.51725 74.5361 1.62305C74.4434 1.72721 74.3107 1.7793 74.1382 1.7793C73.964 1.7793 73.8306 1.7264 73.7378 1.62061C73.645 1.51318 73.5986 1.36426 73.5986 1.17383ZM78.4785 1.17383C78.4785 0.976888 78.5241 0.827148 78.6152 0.724609C78.708 0.62207 78.8423 0.570801 79.0181 0.570801C79.189 0.570801 79.3216 0.621257 79.416 0.722168C79.5104 0.823079 79.5576 0.973633 79.5576 1.17383C79.5576 1.36751 79.5104 1.51725 79.416 1.62305C79.3232 1.72721 79.1906 1.7793 79.0181 1.7793C78.8439 1.7793 78.7104 1.7264 78.6177 1.62061C78.5249 1.51318 78.4785 1.36426 78.4785 1.17383ZM83.3584 1.17383C83.3584 0.976888 83.404 0.827148 83.4951 0.724609C83.5879 0.62207 83.7222 0.570801 83.8979 0.570801C84.0688 0.570801 84.2015 0.621257 84.2959 0.722168C84.3903 0.823079 84.4375 0.973633 84.4375 1.17383C84.4375 1.36751 84.3903 1.51725 84.2959 1.62305C84.2031 1.72721 84.0705 1.7793 83.8979 1.7793C83.7238 1.7793 83.5903 1.7264 83.4976 1.62061C83.4048 1.51318 83.3584 1.36426 83.3584 1.17383ZM88.2383 1.17383C88.2383 0.976888 88.2839 0.827148 88.375 0.724609C88.4678 0.62207 88.6021 0.570801 88.7778 0.570801C88.9487 0.570801 89.0814 0.621257 89.1758 0.722168C89.2702 0.823079 89.3174 0.973633 89.3174 1.17383C89.3174 1.36751 89.2702 1.51725 89.1758 1.62305C89.083 1.72721 88.9504 1.7793 88.7778 1.7793C88.6037 1.7793 88.4702 1.7264 88.3774 1.62061C88.2847 1.51318 88.2383 1.36426 88.2383 1.17383ZM93.1182 1.17383C93.1182 0.976888 93.1637 0.827148 93.2549 0.724609C93.3477 0.62207 93.4819 0.570801 93.6577 0.570801C93.8286 0.570801 93.9613 0.621257 94.0557 0.722168C94.1501 0.823079 94.1973 0.973633 94.1973 1.17383C94.1973 1.36751 94.1501 1.51725 94.0557 1.62305C93.9629 1.72721 93.8302 1.7793 93.6577 1.7793C93.4836 1.7793 93.3501 1.7264 93.2573 1.62061C93.1646 1.51318 93.1182 1.36426 93.1182 1.17383ZM97.998 1.17383C97.998 0.976888 98.0436 0.827148 98.1348 0.724609C98.2275 0.62207 98.3618 0.570801 98.5376 0.570801C98.7085 0.570801 98.8411 0.621257 98.9355 0.722168C99.0299 0.823079 99.0771 0.973633 99.0771 1.17383C99.0771 1.36751 99.0299 1.51725 98.9355 1.62305C98.8428 1.72721 98.7101 1.7793 98.5376 1.7793C98.3634 1.7793 98.23 1.7264 98.1372 1.62061C98.0444 1.51318 97.998 1.36426 97.998 1.17383ZM102.878 1.17383C102.878 0.976888 102.924 0.827148 103.015 0.724609C103.107 0.62207 103.242 0.570801 103.417 0.570801C103.588 0.570801 103.721 0.621257 103.815 0.722168C103.91 0.823079 103.957 0.973633 103.957 1.17383C103.957 1.36751 103.91 1.51725 103.815 1.62305C103.723 1.72721 103.59 1.7793 103.417 1.7793C103.243 1.7793 103.11 1.7264 103.017 1.62061C102.924 1.51318 102.878 1.36426 102.878 1.17383ZM107.758 1.17383C107.758 0.976888 107.803 0.827148 107.895 0.724609C107.987 0.62207 108.122 0.570801 108.297 0.570801C108.468 0.570801 108.601 0.621257 108.695 0.722168C108.79 0.823079 108.837 0.973633 108.837 1.17383C108.837 1.36751 108.79 1.51725 108.695 1.62305C108.603 1.72721 108.47 1.7793 108.297 1.7793C108.123 1.7793 107.99 1.7264 107.897 1.62061C107.804 1.51318 107.758 1.36426 107.758 1.17383ZM112.638 1.17383C112.638 0.976888 112.683 0.827148 112.774 0.724609C112.867 0.62207 113.001 0.570801 113.177 0.570801C113.348 0.570801 113.481 0.621257 113.575 0.722168C113.67 0.823079 113.717 0.973633 113.717 1.17383C113.717 1.36751 113.67 1.51725 113.575 1.62305C113.482 1.72721 113.35 1.7793 113.177 1.7793C113.003 1.7793 112.87 1.7264 112.777 1.62061C112.684 1.51318 112.638 1.36426 112.638 1.17383ZM117.518 1.17383C117.518 0.976888 117.563 0.827148 117.654 0.724609C117.747 0.62207 117.881 0.570801 118.057 0.570801C118.228 0.570801 118.361 0.621257 118.455 0.722168C118.549 0.823079 118.597 0.973633 118.597 1.17383C118.597 1.36751 118.549 1.51725 118.455 1.62305C118.362 1.72721 118.23 1.7793 118.057 1.7793C117.883 1.7793 117.75 1.7264 117.657 1.62061C117.564 1.51318 117.518 1.36426 117.518 1.17383ZM122.397 1.17383C122.397 0.976888 122.443 0.827148 122.534 0.724609C122.627 0.62207 122.761 0.570801 122.937 0.570801C123.108 0.570801 123.241 0.621257 123.335 0.722168C123.429 0.823079 123.477 0.973633 123.477 1.17383C123.477 1.36751 123.429 1.51725 123.335 1.62305C123.242 1.72721 123.11 1.7793 122.937 1.7793C122.763 1.7793 122.629 1.7264 122.537 1.62061C122.444 1.51318 122.397 1.36426 122.397 1.17383ZM127.277 1.17383C127.277 0.976888 127.323 0.827148 127.414 0.724609C127.507 0.62207 127.641 0.570801 127.817 0.570801C127.988 0.570801 128.12 0.621257 128.215 0.722168C128.309 0.823079 128.356 0.973633 128.356 1.17383C128.356 1.36751 128.309 1.51725 128.215 1.62305C128.122 1.72721 127.989 1.7793 127.817 1.7793C127.643 1.7793 127.509 1.7264 127.417 1.62061C127.324 1.51318 127.277 1.36426 127.277 1.17383ZM132.157 1.17383C132.157 0.976888 132.203 0.827148 132.294 0.724609C132.387 0.62207 132.521 0.570801 132.697 0.570801C132.868 0.570801 133 0.621257 133.095 0.722168C133.189 0.823079 133.236 0.973633 133.236 1.17383C133.236 1.36751 133.189 1.51725 133.095 1.62305C133.002 1.72721 132.869 1.7793 132.697 1.7793C132.523 1.7793 132.389 1.7264 132.296 1.62061C132.204 1.51318 132.157 1.36426 132.157 1.17383ZM137.037 1.17383C137.037 0.976888 137.083 0.827148 137.174 0.724609C137.267 0.62207 137.401 0.570801 137.577 0.570801C137.748 0.570801 137.88 0.621257 137.975 0.722168C138.069 0.823079 138.116 0.973633 138.116 1.17383C138.116 1.36751 138.069 1.51725 137.975 1.62305C137.882 1.72721 137.749 1.7793 137.577 1.7793C137.403 1.7793 137.269 1.7264 137.176 1.62061C137.083 1.51318 137.037 1.36426 137.037 1.17383ZM141.917 1.17383C141.917 0.976888 141.963 0.827148 142.054 0.724609C142.146 0.62207 142.281 0.570801 142.457 0.570801C142.627 0.570801 142.76 0.621257 142.854 0.722168C142.949 0.823079 142.996 0.973633 142.996 1.17383C142.996 1.36751 142.949 1.51725 142.854 1.62305C142.762 1.72721 142.629 1.7793 142.457 1.7793C142.282 1.7793 142.149 1.7264 142.056 1.62061C141.963 1.51318 141.917 1.36426 141.917 1.17383ZM146.797 1.17383C146.797 0.976888 146.842 0.827148 146.934 0.724609C147.026 0.62207 147.161 0.570801 147.336 0.570801C147.507 0.570801 147.64 0.621257 147.734 0.722168C147.829 0.823079 147.876 0.973633 147.876 1.17383C147.876 1.36751 147.829 1.51725 147.734 1.62305C147.642 1.72721 147.509 1.7793 147.336 1.7793C147.162 1.7793 147.029 1.7264 146.936 1.62061C146.843 1.51318 146.797 1.36426 146.797 1.17383ZM151.677 1.17383C151.677 0.976888 151.722 0.827148 151.813 0.724609C151.906 0.62207 152.041 0.570801 152.216 0.570801C152.387 0.570801 152.52 0.621257 152.614 0.722168C152.709 0.823079 152.756 0.973633 152.756 1.17383C152.756 1.36751 152.709 1.51725 152.614 1.62305C152.521 1.72721 152.389 1.7793 152.216 1.7793C152.042 1.7793 151.909 1.7264 151.816 1.62061C151.723 1.51318 151.677 1.36426 151.677 1.17383ZM156.557 1.17383C156.557 0.976888 156.602 0.827148 156.693 0.724609C156.786 0.62207 156.92 0.570801 157.096 0.570801C157.267 0.570801 157.4 0.621257 157.494 0.722168C157.589 0.823079 157.636 0.973633 157.636 1.17383C157.636 1.36751 157.589 1.51725 157.494 1.62305C157.401 1.72721 157.269 1.7793 157.096 1.7793C156.922 1.7793 156.789 1.7264 156.696 1.62061C156.603 1.51318 156.557 1.36426 156.557 1.17383ZM161.437 1.17383C161.437 0.976888 161.482 0.827148 161.573 0.724609C161.666 0.62207 161.8 0.570801 161.976 0.570801C162.147 0.570801 162.28 0.621257 162.374 0.722168C162.468 0.823079 162.516 0.973633 162.516 1.17383C162.516 1.36751 162.468 1.51725 162.374 1.62305C162.281 1.72721 162.149 1.7793 161.976 1.7793C161.802 1.7793 161.668 1.7264 161.576 1.62061C161.483 1.51318 161.437 1.36426 161.437 1.17383ZM166.316 1.17383C166.316 0.976888 166.362 0.827148 166.453 0.724609C166.546 0.62207 166.68 0.570801 166.856 0.570801C167.027 0.570801 167.16 0.621257 167.254 0.722168C167.348 0.823079 167.396 0.973633 167.396 1.17383C167.396 1.36751 167.348 1.51725 167.254 1.62305C167.161 1.72721 167.028 1.7793 166.856 1.7793C166.682 1.7793 166.548 1.7264 166.456 1.62061C166.363 1.51318 166.316 1.36426 166.316 1.17383ZM171.196 1.17383C171.196 0.976888 171.242 0.827148 171.333 0.724609C171.426 0.62207 171.56 0.570801 171.736 0.570801C171.907 0.570801 172.039 0.621257 172.134 0.722168C172.228 0.823079 172.275 0.973633 172.275 1.17383C172.275 1.36751 172.228 1.51725 172.134 1.62305C172.041 1.72721 171.908 1.7793 171.736 1.7793C171.562 1.7793 171.428 1.7264 171.335 1.62061C171.243 1.51318 171.196 1.36426 171.196 1.17383ZM176.076 1.17383C176.076 0.976888 176.122 0.827148 176.213 0.724609C176.306 0.62207 176.44 0.570801 176.616 0.570801C176.787 0.570801 176.919 0.621257 177.014 0.722168C177.108 0.823079 177.155 0.973633 177.155 1.17383C177.155 1.36751 177.108 1.51725 177.014 1.62305C176.921 1.72721 176.788 1.7793 176.616 1.7793C176.442 1.7793 176.308 1.7264 176.215 1.62061C176.123 1.51318 176.076 1.36426 176.076 1.17383ZM180.956 1.17383C180.956 0.976888 181.002 0.827148 181.093 0.724609C181.186 0.62207 181.32 0.570801 181.496 0.570801C181.667 0.570801 181.799 0.621257 181.894 0.722168C181.988 0.823079 182.035 0.973633 182.035 1.17383C182.035 1.36751 181.988 1.51725 181.894 1.62305C181.801 1.72721 181.668 1.7793 181.496 1.7793C181.321 1.7793 181.188 1.7264 181.095 1.62061C181.002 1.51318 180.956 1.36426 180.956 1.17383ZM185.836 1.17383C185.836 0.976888 185.882 0.827148 185.973 0.724609C186.065 0.62207 186.2 0.570801 186.375 0.570801C186.546 0.570801 186.679 0.621257 186.773 0.722168C186.868 0.823079 186.915 0.973633 186.915 1.17383C186.915 1.36751 186.868 1.51725 186.773 1.62305C186.681 1.72721 186.548 1.7793 186.375 1.7793C186.201 1.7793 186.068 1.7264 185.975 1.62061C185.882 1.51318 185.836 1.36426 185.836 1.17383ZM190.716 1.17383C190.716 0.976888 190.761 0.827148 190.853 0.724609C190.945 0.62207 191.08 0.570801 191.255 0.570801C191.426 0.570801 191.559 0.621257 191.653 0.722168C191.748 0.823079 191.795 0.973633 191.795 1.17383C191.795 1.36751 191.748 1.51725 191.653 1.62305C191.561 1.72721 191.428 1.7793 191.255 1.7793C191.081 1.7793 190.948 1.7264 190.855 1.62061C190.762 1.51318 190.716 1.36426 190.716 1.17383ZM195.596 1.17383C195.596 0.976888 195.641 0.827148 195.732 0.724609C195.825 0.62207 195.959 0.570801 196.135 0.570801C196.306 0.570801 196.439 0.621257 196.533 0.722168C196.628 0.823079 196.675 0.973633 196.675 1.17383C196.675 1.36751 196.628 1.51725 196.533 1.62305C196.44 1.72721 196.308 1.7793 196.135 1.7793C195.961 1.7793 195.828 1.7264 195.735 1.62061C195.642 1.51318 195.596 1.36426 195.596 1.17383ZM200.476 1.17383C200.476 0.976888 200.521 0.827148 200.612 0.724609C200.705 0.62207 200.839 0.570801 201.015 0.570801C201.186 0.570801 201.319 0.621257 201.413 0.722168C201.507 0.823079 201.555 0.973633 201.555 1.17383C201.555 1.36751 201.507 1.51725 201.413 1.62305C201.32 1.72721 201.188 1.7793 201.015 1.7793C200.841 1.7793 200.708 1.7264 200.615 1.62061C200.522 1.51318 200.476 1.36426 200.476 1.17383ZM205.355 1.17383C205.355 0.976888 205.401 0.827148 205.492 0.724609C205.585 0.62207 205.719 0.570801 205.895 0.570801C206.066 0.570801 206.199 0.621257 206.293 0.722168C206.387 0.823079 206.435 0.973633 206.435 1.17383C206.435 1.36751 206.387 1.51725 206.293 1.62305C206.2 1.72721 206.068 1.7793 205.895 1.7793C205.721 1.7793 205.587 1.7264 205.495 1.62061C205.402 1.51318 205.355 1.36426 205.355 1.17383ZM0.400391 1.17383C0.400391 0.976888 0.445964 0.827148 0.537109 0.724609C0.629883 0.62207 0.76416 0.570801 0.939941 0.570801C1.11084 0.570801 1.24349 0.621257 1.33789 0.722168C1.43229 0.823079 1.47949 0.973633 1.47949 1.17383C1.47949 1.36751 1.43229 1.51725 1.33789 1.62305C1.24512 1.72721 1.11247 1.7793 0.939941 1.7793C0.765788 1.7793 0.632324 1.7264 0.539551 1.62061C0.446777 1.51318 0.400391 1.36426 0.400391 1.17383ZM5.28027 1.17383C5.28027 0.976888 5.32585 0.827148 5.41699 0.724609C5.50977 0.62207 5.64404 0.570801 5.81982 0.570801C5.99072 0.570801 6.12337 0.621257 6.21777 0.722168C6.31217 0.823079 6.35938 0.973633 6.35938 1.17383C6.35938 1.36751 6.31217 1.51725 6.21777 1.62305C6.125 1.72721 5.99235 1.7793 5.81982 1.7793C5.64567 1.7793 5.51221 1.7264 5.41943 1.62061C5.32666 1.51318 5.28027 1.36426 5.28027 1.17383ZM10.1602 1.17383C10.1602 0.976888 10.2057 0.827148 10.2969 0.724609C10.3896 0.62207 10.5239 0.570801 10.6997 0.570801C10.8706 0.570801 11.0033 0.621257 11.0977 0.722168C11.1921 0.823079 11.2393 0.973633 11.2393 1.17383C11.2393 1.36751 11.1921 1.51725 11.0977 1.62305C11.0049 1.72721 10.8722 1.7793 10.6997 1.7793C10.5256 1.7793 10.3921 1.7264 10.2993 1.62061C10.2065 1.51318 10.1602 1.36426 10.1602 1.17383ZM15.04 1.17383C15.04 0.976888 15.0856 0.827148 15.1768 0.724609C15.2695 0.62207 15.4038 0.570801 15.5796 0.570801C15.7505 0.570801 15.8831 0.621257 15.9775 0.722168C16.0719 0.823079 16.1191 0.973633 16.1191 1.17383C16.1191 1.36751 16.0719 1.51725 15.9775 1.62305C15.8848 1.72721 15.7521 1.7793 15.5796 1.7793C15.4054 1.7793 15.272 1.7264 15.1792 1.62061C15.0864 1.51318 15.04 1.36426 15.04 1.17383ZM19.9199 1.17383C19.9199 0.976888 19.9655 0.827148 20.0566 0.724609C20.1494 0.62207 20.2837 0.570801 20.4595 0.570801C20.6304 0.570801 20.763 0.621257 20.8574 0.722168C20.9518 0.823079 20.999 0.973633 20.999 1.17383C20.999 1.36751 20.9518 1.51725 20.8574 1.62305C20.7646 1.72721 20.632 1.7793 20.4595 1.7793C20.2853 1.7793 20.1519 1.7264 20.0591 1.62061C19.9663 1.51318 19.9199 1.36426 19.9199 1.17383ZM24.7998 1.17383C24.7998 0.976888 24.8454 0.827148 24.9365 0.724609C25.0293 0.62207 25.1636 0.570801 25.3394 0.570801C25.5103 0.570801 25.6429 0.621257 25.7373 0.722168C25.8317 0.823079 25.8789 0.973633 25.8789 1.17383C25.8789 1.36751 25.8317 1.51725 25.7373 1.62305C25.6445 1.72721 25.5119 1.7793 25.3394 1.7793C25.1652 1.7793 25.0317 1.7264 24.939 1.62061C24.8462 1.51318 24.7998 1.36426 24.7998 1.17383ZM29.6797 1.17383C29.6797 0.976888 29.7253 0.827148 29.8164 0.724609C29.9092 0.62207 30.0435 0.570801 30.2192 0.570801C30.3901 0.570801 30.5228 0.621257 30.6172 0.722168C30.7116 0.823079 30.7588 0.973633 30.7588 1.17383C30.7588 1.36751 30.7116 1.51725 30.6172 1.62305C30.5244 1.72721 30.3918 1.7793 30.2192 1.7793C30.0451 1.7793 29.9116 1.7264 29.8188 1.62061C29.7261 1.51318 29.6797 1.36426 29.6797 1.17383ZM34.5596 1.17383C34.5596 0.976888 34.6051 0.827148 34.6963 0.724609C34.7891 0.62207 34.9233 0.570801 35.0991 0.570801C35.27 0.570801 35.4027 0.621257 35.4971 0.722168C35.5915 0.823079 35.6387 0.973633 35.6387 1.17383C35.6387 1.36751 35.5915 1.51725 35.4971 1.62305C35.4043 1.72721 35.2716 1.7793 35.0991 1.7793C34.925 1.7793 34.7915 1.7264 34.6987 1.62061C34.606 1.51318 34.5596 1.36426 34.5596 1.17383ZM39.4395 1.17383C39.4395 0.976888 39.485 0.827148 39.5762 0.724609C39.6689 0.62207 39.8032 0.570801 39.979 0.570801C40.1499 0.570801 40.2826 0.621257 40.377 0.722168C40.4714 0.823079 40.5186 0.973633 40.5186 1.17383C40.5186 1.36751 40.4714 1.51725 40.377 1.62305C40.2842 1.72721 40.1515 1.7793 39.979 1.7793C39.8049 1.7793 39.6714 1.7264 39.5786 1.62061C39.4858 1.51318 39.4395 1.36426 39.4395 1.17383ZM44.3193 1.17383C44.3193 0.976888 44.3649 0.827148 44.4561 0.724609C44.5488 0.62207 44.6831 0.570801 44.8589 0.570801C45.0298 0.570801 45.1624 0.621257 45.2568 0.722168C45.3512 0.823079 45.3984 0.973633 45.3984 1.17383C45.3984 1.36751 45.3512 1.51725 45.2568 1.62305C45.1641 1.72721 45.0314 1.7793 44.8589 1.7793C44.6847 1.7793 44.5513 1.7264 44.4585 1.62061C44.3657 1.51318 44.3193 1.36426 44.3193 1.17383ZM49.1992 1.17383C49.1992 0.976888 49.2448 0.827148 49.3359 0.724609C49.4287 0.62207 49.563 0.570801 49.7388 0.570801C49.9097 0.570801 50.0423 0.621257 50.1367 0.722168C50.2311 0.823079 50.2783 0.973633 50.2783 1.17383C50.2783 1.36751 50.2311 1.51725 50.1367 1.62305C50.0439 1.72721 49.9113 1.7793 49.7388 1.7793C49.5646 1.7793 49.4312 1.7264 49.3384 1.62061C49.2456 1.51318 49.1992 1.36426 49.1992 1.17383ZM54.0791 1.17383C54.0791 0.976888 54.1247 0.827148 54.2158 0.724609C54.3086 0.62207 54.4429 0.570801 54.6187 0.570801C54.7896 0.570801 54.9222 0.621257 55.0166 0.722168C55.111 0.823079 55.1582 0.973633 55.1582 1.17383C55.1582 1.36751 55.111 1.51725 55.0166 1.62305C54.9238 1.72721 54.7912 1.7793 54.6187 1.7793C54.4445 1.7793 54.311 1.7264 54.2183 1.62061C54.1255 1.51318 54.0791 1.36426 54.0791 1.17383ZM58.959 1.17383C58.959 0.976888 59.0046 0.827148 59.0957 0.724609C59.1885 0.62207 59.3228 0.570801 59.4985 0.570801C59.6694 0.570801 59.8021 0.621257 59.8965 0.722168C59.9909 0.823079 60.0381 0.973633 60.0381 1.17383C60.0381 1.36751 59.9909 1.51725 59.8965 1.62305C59.8037 1.72721 59.6711 1.7793 59.4985 1.7793C59.3244 1.7793 59.1909 1.7264 59.0981 1.62061C59.0054 1.51318 58.959 1.36426 58.959 1.17383ZM63.8389 1.17383C63.8389 0.976888 63.8844 0.827148 63.9756 0.724609C64.0684 0.62207 64.2026 0.570801 64.3784 0.570801C64.5493 0.570801 64.682 0.621257 64.7764 0.722168C64.8708 0.823079 64.918 0.973633 64.918 1.17383C64.918 1.36751 64.8708 1.51725 64.7764 1.62305C64.6836 1.72721 64.5509 1.7793 64.3784 1.7793C64.2043 1.7793 64.0708 1.7264 63.978 1.62061C63.8853 1.51318 63.8389 1.36426 63.8389 1.17383ZM68.7188 1.17383C68.7188 0.976888 68.7643 0.827148 68.8555 0.724609C68.9482 0.62207 69.0825 0.570801 69.2583 0.570801C69.4292 0.570801 69.5618 0.621257 69.6562 0.722168C69.7507 0.823079 69.7979 0.973633 69.7979 1.17383C69.7979 1.36751 69.7507 1.51725 69.6562 1.62305C69.5635 1.72721 69.4308 1.7793 69.2583 1.7793C69.0841 1.7793 68.9507 1.7264 68.8579 1.62061C68.7651 1.51318 68.7188 1.36426 68.7188 1.17383ZM73.5986 1.17383C73.5986 0.976888 73.6442 0.827148 73.7354 0.724609C73.8281 0.62207 73.9624 0.570801 74.1382 0.570801C74.3091 0.570801 74.4417 0.621257 74.5361 0.722168C74.6305 0.823079 74.6777 0.973633 74.6777 1.17383C74.6777 1.36751 74.6305 1.51725 74.5361 1.62305C74.4434 1.72721 74.3107 1.7793 74.1382 1.7793C73.964 1.7793 73.8306 1.7264 73.7378 1.62061C73.645 1.51318 73.5986 1.36426 73.5986 1.17383ZM78.4785 1.17383C78.4785 0.976888 78.5241 0.827148 78.6152 0.724609C78.708 0.62207 78.8423 0.570801 79.0181 0.570801C79.189 0.570801 79.3216 0.621257 79.416 0.722168C79.5104 0.823079 79.5576 0.973633 79.5576 1.17383C79.5576 1.36751 79.5104 1.51725 79.416 1.62305C79.3232 1.72721 79.1906 1.7793 79.0181 1.7793C78.8439 1.7793 78.7104 1.7264 78.6177 1.62061C78.5249 1.51318 78.4785 1.36426 78.4785 1.17383ZM83.3584 1.17383C83.3584 0.976888 83.404 0.827148 83.4951 0.724609C83.5879 0.62207 83.7222 0.570801 83.8979 0.570801C84.0688 0.570801 84.2015 0.621257 84.2959 0.722168C84.3903 0.823079 84.4375 0.973633 84.4375 1.17383C84.4375 1.36751 84.3903 1.51725 84.2959 1.62305C84.2031 1.72721 84.0705 1.7793 83.8979 1.7793C83.7238 1.7793 83.5903 1.7264 83.4976 1.62061C83.4048 1.51318 83.3584 1.36426 83.3584 1.17383ZM88.2383 1.17383C88.2383 0.976888 88.2839 0.827148 88.375 0.724609C88.4678 0.62207 88.6021 0.570801 88.7778 0.570801C88.9487 0.570801 89.0814 0.621257 89.1758 0.722168C89.2702 0.823079 89.3174 0.973633 89.3174 1.17383C89.3174 1.36751 89.2702 1.51725 89.1758 1.62305C89.083 1.72721 88.9504 1.7793 88.7778 1.7793C88.6037 1.7793 88.4702 1.7264 88.3774 1.62061C88.2847 1.51318 88.2383 1.36426 88.2383 1.17383ZM93.1182 1.17383C93.1182 0.976888 93.1637 0.827148 93.2549 0.724609C93.3477 0.62207 93.4819 0.570801 93.6577 0.570801C93.8286 0.570801 93.9613 0.621257 94.0557 0.722168C94.1501 0.823079 94.1973 0.973633 94.1973 1.17383C94.1973 1.36751 94.1501 1.51725 94.0557 1.62305C93.9629 1.72721 93.8302 1.7793 93.6577 1.7793C93.4836 1.7793 93.3501 1.7264 93.2573 1.62061C93.1646 1.51318 93.1182 1.36426 93.1182 1.17383ZM97.998 1.17383C97.998 0.976888 98.0436 0.827148 98.1348 0.724609C98.2275 0.62207 98.3618 0.570801 98.5376 0.570801C98.7085 0.570801 98.8411 0.621257 98.9355 0.722168C99.0299 0.823079 99.0771 0.973633 99.0771 1.17383C99.0771 1.36751 99.0299 1.51725 98.9355 1.62305C98.8428 1.72721 98.7101 1.7793 98.5376 1.7793C98.3634 1.7793 98.23 1.7264 98.1372 1.62061C98.0444 1.51318 97.998 1.36426 97.998 1.17383ZM102.878 1.17383C102.878 0.976888 102.924 0.827148 103.015 0.724609C103.107 0.62207 103.242 0.570801 103.417 0.570801C103.588 0.570801 103.721 0.621257 103.815 0.722168C103.91 0.823079 103.957 0.973633 103.957 1.17383C103.957 1.36751 103.91 1.51725 103.815 1.62305C103.723 1.72721 103.59 1.7793 103.417 1.7793C103.243 1.7793 103.11 1.7264 103.017 1.62061C102.924 1.51318 102.878 1.36426 102.878 1.17383ZM107.758 1.17383C107.758 0.976888 107.803 0.827148 107.895 0.724609C107.987 0.62207 108.122 0.570801 108.297 0.570801C108.468 0.570801 108.601 0.621257 108.695 0.722168C108.79 0.823079 108.837 0.973633 108.837 1.17383C108.837 1.36751 108.79 1.51725 108.695 1.62305C108.603 1.72721 108.47 1.7793 108.297 1.7793C108.123 1.7793 107.99 1.7264 107.897 1.62061C107.804 1.51318 107.758 1.36426 107.758 1.17383ZM112.638 1.17383C112.638 0.976888 112.683 0.827148 112.774 0.724609C112.867 0.62207 113.001 0.570801 113.177 0.570801C113.348 0.570801 113.481 0.621257 113.575 0.722168C113.67 0.823079 113.717 0.973633 113.717 1.17383C113.717 1.36751 113.67 1.51725 113.575 1.62305C113.482 1.72721 113.35 1.7793 113.177 1.7793C113.003 1.7793 112.87 1.7264 112.777 1.62061C112.684 1.51318 112.638 1.36426 112.638 1.17383ZM117.518 1.17383C117.518 0.976888 117.563 0.827148 117.654 0.724609C117.747 0.62207 117.881 0.570801 118.057 0.570801C118.228 0.570801 118.361 0.621257 118.455 0.722168C118.549 0.823079 118.597 0.973633 118.597 1.17383C118.597 1.36751 118.549 1.51725 118.455 1.62305C118.362 1.72721 118.23 1.7793 118.057 1.7793C117.883 1.7793 117.75 1.7264 117.657 1.62061C117.564 1.51318 117.518 1.36426 117.518 1.17383ZM122.397 1.17383C122.397 0.976888 122.443 0.827148 122.534 0.724609C122.627 0.62207 122.761 0.570801 122.937 0.570801C123.108 0.570801 123.241 0.621257 123.335 0.722168C123.429 0.823079 123.477 0.973633 123.477 1.17383C123.477 1.36751 123.429 1.51725 123.335 1.62305C123.242 1.72721 123.11 1.7793 122.937 1.7793C122.763 1.7793 122.629 1.7264 122.537 1.62061C122.444 1.51318 122.397 1.36426 122.397 1.17383ZM127.277 1.17383C127.277 0.976888 127.323 0.827148 127.414 0.724609C127.507 0.62207 127.641 0.570801 127.817 0.570801C127.988 0.570801 128.12 0.621257 128.215 0.722168C128.309 0.823079 128.356 0.973633 128.356 1.17383C128.356 1.36751 128.309 1.51725 128.215 1.62305C128.122 1.72721 127.989 1.7793 127.817 1.7793C127.643 1.7793 127.509 1.7264 127.417 1.62061C127.324 1.51318 127.277 1.36426 127.277 1.17383ZM132.157 1.17383C132.157 0.976888 132.203 0.827148 132.294 0.724609C132.387 0.62207 132.521 0.570801 132.697 0.570801C132.868 0.570801 133 0.621257 133.095 0.722168C133.189 0.823079 133.236 0.973633 133.236 1.17383C133.236 1.36751 133.189 1.51725 133.095 1.62305C133.002 1.72721 132.869 1.7793 132.697 1.7793C132.523 1.7793 132.389 1.7264 132.296 1.62061C132.204 1.51318 132.157 1.36426 132.157 1.17383ZM137.037 1.17383C137.037 0.976888 137.083 0.827148 137.174 0.724609C137.267 0.62207 137.401 0.570801 137.577 0.570801C137.748 0.570801 137.88 0.621257 137.975 0.722168C138.069 0.823079 138.116 0.973633 138.116 1.17383C138.116 1.36751 138.069 1.51725 137.975 1.62305C137.882 1.72721 137.749 1.7793 137.577 1.7793C137.403 1.7793 137.269 1.7264 137.176 1.62061C137.083 1.51318 137.037 1.36426 137.037 1.17383ZM141.917 1.17383C141.917 0.976888 141.963 0.827148 142.054 0.724609C142.146 0.62207 142.281 0.570801 142.457 0.570801C142.627 0.570801 142.76 0.621257 142.854 0.722168C142.949 0.823079 142.996 0.973633 142.996 1.17383C142.996 1.36751 142.949 1.51725 142.854 1.62305C142.762 1.72721 142.629 1.7793 142.457 1.7793C142.282 1.7793 142.149 1.7264 142.056 1.62061C141.963 1.51318 141.917 1.36426 141.917 1.17383ZM146.797 1.17383C146.797 0.976888 146.842 0.827148 146.934 0.724609C147.026 0.62207 147.161 0.570801 147.336 0.570801C147.507 0.570801 147.64 0.621257 147.734 0.722168C147.829 0.823079 147.876 0.973633 147.876 1.17383C147.876 1.36751 147.829 1.51725 147.734 1.62305C147.642 1.72721 147.509 1.7793 147.336 1.7793C147.162 1.7793 147.029 1.7264 146.936 1.62061C146.843 1.51318 146.797 1.36426 146.797 1.17383ZM151.677 1.17383C151.677 0.976888 151.722 0.827148 151.813 0.724609C151.906 0.62207 152.041 0.570801 152.216 0.570801C152.387 0.570801 152.52 0.621257 152.614 0.722168C152.709 0.823079 152.756 0.973633 152.756 1.17383C152.756 1.36751 152.709 1.51725 152.614 1.62305C152.521 1.72721 152.389 1.7793 152.216 1.7793C152.042 1.7793 151.909 1.7264 151.816 1.62061C151.723 1.51318 151.677 1.36426 151.677 1.17383ZM156.557 1.17383C156.557 0.976888 156.602 0.827148 156.693 0.724609C156.786 0.62207 156.92 0.570801 157.096 0.570801C157.267 0.570801 157.4 0.621257 157.494 0.722168C157.589 0.823079 157.636 0.973633 157.636 1.17383C157.636 1.36751 157.589 1.51725 157.494 1.62305C157.401 1.72721 157.269 1.7793 157.096 1.7793C156.922 1.7793 156.789 1.7264 156.696 1.62061C156.603 1.51318 156.557 1.36426 156.557 1.17383ZM161.437 1.17383C161.437 0.976888 161.482 0.827148 161.573 0.724609C161.666 0.62207 161.8 0.570801 161.976 0.570801C162.147 0.570801 162.28 0.621257 162.374 0.722168C162.468 0.823079 162.516 0.973633 162.516 1.17383C162.516 1.36751 162.468 1.51725 162.374 1.62305C162.281 1.72721 162.149 1.7793 161.976 1.7793C161.802 1.7793 161.668 1.7264 161.576 1.62061C161.483 1.51318 161.437 1.36426 161.437 1.17383ZM166.316 1.17383C166.316 0.976888 166.362 0.827148 166.453 0.724609C166.546 0.62207 166.68 0.570801 166.856 0.570801C167.027 0.570801 167.16 0.621257 167.254 0.722168C167.348 0.823079 167.396 0.973633 167.396 1.17383C167.396 1.36751 167.348 1.51725 167.254 1.62305C167.161 1.72721 167.028 1.7793 166.856 1.7793C166.682 1.7793 166.548 1.7264 166.456 1.62061C166.363 1.51318 166.316 1.36426 166.316 1.17383ZM171.196 1.17383C171.196 0.976888 171.242 0.827148 171.333 0.724609C171.426 0.62207 171.56 0.570801 171.736 0.570801C171.907 0.570801 172.039 0.621257 172.134 0.722168C172.228 0.823079 172.275 0.973633 172.275 1.17383C172.275 1.36751 172.228 1.51725 172.134 1.62305C172.041 1.72721 171.908 1.7793 171.736 1.7793C171.562 1.7793 171.428 1.7264 171.335 1.62061C171.243 1.51318 171.196 1.36426 171.196 1.17383ZM176.076 1.17383C176.076 0.976888 176.122 0.827148 176.213 0.724609C176.306 0.62207 176.44 0.570801 176.616 0.570801C176.787 0.570801 176.919 0.621257 177.014 0.722168C177.108 0.823079 177.155 0.973633 177.155 1.17383C177.155 1.36751 177.108 1.51725 177.014 1.62305C176.921 1.72721 176.788 1.7793 176.616 1.7793C176.442 1.7793 176.308 1.7264 176.215 1.62061C176.123 1.51318 176.076 1.36426 176.076 1.17383ZM180.956 1.17383C180.956 0.976888 181.002 0.827148 181.093 0.724609C181.186 0.62207 181.32 0.570801 181.496 0.570801C181.667 0.570801 181.799 0.621257 181.894 0.722168C181.988 0.823079 182.035 0.973633 182.035 1.17383C182.035 1.36751 181.988 1.51725 181.894 1.62305C181.801 1.72721 181.668 1.7793 181.496 1.7793C181.321 1.7793 181.188 1.7264 181.095 1.62061C181.002 1.51318 180.956 1.36426 180.956 1.17383ZM185.836 1.17383C185.836 0.976888 185.882 0.827148 185.973 0.724609C186.065 0.62207 186.2 0.570801 186.375 0.570801C186.546 0.570801 186.679 0.621257 186.773 0.722168C186.868 0.823079 186.915 0.973633 186.915 1.17383C186.915 1.36751 186.868 1.51725 186.773 1.62305C186.681 1.72721 186.548 1.7793 186.375 1.7793C186.201 1.7793 186.068 1.7264 185.975 1.62061C185.882 1.51318 185.836 1.36426 185.836 1.17383ZM190.716 1.17383C190.716 0.976888 190.761 0.827148 190.853 0.724609C190.945 0.62207 191.08 0.570801 191.255 0.570801C191.426 0.570801 191.559 0.621257 191.653 0.722168C191.748 0.823079 191.795 0.973633 191.795 1.17383C191.795 1.36751 191.748 1.51725 191.653 1.62305C191.561 1.72721 191.428 1.7793 191.255 1.7793C191.081 1.7793 190.948 1.7264 190.855 1.62061C190.762 1.51318 190.716 1.36426 190.716 1.17383ZM195.596 1.17383C195.596 0.976888 195.641 0.827148 195.732 0.724609C195.825 0.62207 195.959 0.570801 196.135 0.570801C196.306 0.570801 196.439 0.621257 196.533 0.722168C196.628 0.823079 196.675 0.973633 196.675 1.17383C196.675 1.36751 196.628 1.51725 196.533 1.62305C196.44 1.72721 196.308 1.7793 196.135 1.7793C195.961 1.7793 195.828 1.7264 195.735 1.62061C195.642 1.51318 195.596 1.36426 195.596 1.17383ZM200.476 1.17383C200.476 0.976888 200.521 0.827148 200.612 0.724609C200.705 0.62207 200.839 0.570801 201.015 0.570801C201.186 0.570801 201.319 0.621257 201.413 0.722168C201.507 0.823079 201.555 0.973633 201.555 1.17383C201.555 1.36751 201.507 1.51725 201.413 1.62305C201.32 1.72721 201.188 1.7793 201.015 1.7793C200.841 1.7793 200.708 1.7264 200.615 1.62061C200.522 1.51318 200.476 1.36426 200.476 1.17383ZM205.355 1.17383C205.355 0.976888 205.401 0.827148 205.492 0.724609C205.585 0.62207 205.719 0.570801 205.895 0.570801C206.066 0.570801 206.199 0.621257 206.293 0.722168C206.387 0.823079 206.435 0.973633 206.435 1.17383C206.435 1.36751 206.387 1.51725 206.293 1.62305C206.2 1.72721 206.068 1.7793 205.895 1.7793C205.721 1.7793 205.587 1.7264 205.495 1.62061C205.402 1.51318 205.355 1.36426 205.355 1.17383ZM0.400391 1.17383C0.400391 0.976888 0.445964 0.827148 0.537109 0.724609C0.629883 0.62207 0.76416 0.570801 0.939941 0.570801C1.11084 0.570801 1.24349 0.621257 1.33789 0.722168C1.43229 0.823079 1.47949 0.973633 1.47949 1.17383C1.47949 1.36751 1.43229 1.51725 1.33789 1.62305C1.24512 1.72721 1.11247 1.7793 0.939941 1.7793C0.765788 1.7793 0.632324 1.7264 0.539551 1.62061C0.446777 1.51318 0.400391 1.36426 0.400391 1.17383ZM5.28027 1.17383C5.28027 0.976888 5.32585 0.827148 5.41699 0.724609C5.50977 0.62207 5.64404 0.570801 5.81982 0.570801C5.99072 0.570801 6.12337 0.621257 6.21777 0.722168C6.31217 0.823079 6.35938 0.973633 6.35938 1.17383C6.35938 1.36751 6.31217 1.51725 6.21777 1.62305C6.125 1.72721 5.99235 1.7793 5.81982 1.7793C5.64567 1.7793 5.51221 1.7264 5.41943 1.62061C5.32666 1.51318 5.28027 1.36426 5.28027 1.17383ZM10.1602 1.17383C10.1602 0.976888 10.2057 0.827148 10.2969 0.724609C10.3896 0.62207 10.5239 0.570801 10.6997 0.570801C10.8706 0.570801 11.0033 0.621257 11.0977 0.722168C11.1921 0.823079 11.2393 0.973633 11.2393 1.17383C11.2393 1.36751 11.1921 1.51725 11.0977 1.62305C11.0049 1.72721 10.8722 1.7793 10.6997 1.7793C10.5256 1.7793 10.3921 1.7264 10.2993 1.62061C10.2065 1.51318 10.1602 1.36426 10.1602 1.17383ZM15.04 1.17383C15.04 0.976888 15.0856 0.827148 15.1768 0.724609C15.2695 0.62207 15.4038 0.570801 15.5796 0.570801C15.7505 0.570801 15.8831 0.621257 15.9775 0.722168C16.0719 0.823079 16.1191 0.973633 16.1191 1.17383C16.1191 1.36751 16.0719 1.51725 15.9775 1.62305C15.8848 1.72721 15.7521 1.7793 15.5796 1.7793C15.4054 1.7793 15.272 1.7264 15.1792 1.62061C15.0864 1.51318 15.04 1.36426 15.04 1.17383ZM19.9199 1.17383C19.9199 0.976888 19.9655 0.827148 20.0566 0.724609C20.1494 0.62207 20.2837 0.570801 20.4595 0.570801C20.6304 0.570801 20.763 0.621257 20.8574 0.722168C20.9518 0.823079 20.999 0.973633 20.999 1.17383C20.999 1.36751 20.9518 1.51725 20.8574 1.62305C20.7646 1.72721 20.632 1.7793 20.4595 1.7793C20.2853 1.7793 20.1519 1.7264 20.0591 1.62061C19.9663 1.51318 19.9199 1.36426 19.9199 1.17383ZM24.7998 1.17383C24.7998 0.976888 24.8454 0.827148 24.9365 0.724609C25.0293 0.62207 25.1636 0.570801 25.3394 0.570801C25.5103 0.570801 25.6429 0.621257 25.7373 0.722168C25.8317 0.823079 25.8789 0.973633 25.8789 1.17383C25.8789 1.36751 25.8317 1.51725 25.7373 1.62305C25.6445 1.72721 25.5119 1.7793 25.3394 1.7793C25.1652 1.7793 25.0317 1.7264 24.939 1.62061C24.8462 1.51318 24.7998 1.36426 24.7998 1.17383ZM29.6797 1.17383C29.6797 0.976888 29.7253 0.827148 29.8164 0.724609C29.9092 0.62207 30.0435 0.570801 30.2192 0.570801C30.3901 0.570801 30.5228 0.621257 30.6172 0.722168C30.7116 0.823079 30.7588 0.973633 30.7588 1.17383C30.7588 1.36751 30.7116 1.51725 30.6172 1.62305C30.5244 1.72721 30.3918 1.7793 30.2192 1.7793C30.0451 1.7793 29.9116 1.7264 29.8188 1.62061C29.7261 1.51318 29.6797 1.36426 29.6797 1.17383ZM34.5596 1.17383C34.5596 0.976888 34.6051 0.827148 34.6963 0.724609C34.7891 0.62207 34.9233 0.570801 35.0991 0.570801C35.27 0.570801 35.4027 0.621257 35.4971 0.722168C35.5915 0.823079 35.6387 0.973633 35.6387 1.17383C35.6387 1.36751 35.5915 1.51725 35.4971 1.62305C35.4043 1.72721 35.2716 1.7793 35.0991 1.7793C34.925 1.7793 34.7915 1.7264 34.6987 1.62061C34.606 1.51318 34.5596 1.36426 34.5596 1.17383ZM39.4395 1.17383C39.4395 0.976888 39.485 0.827148 39.5762 0.724609C39.6689 0.62207 39.8032 0.570801 39.979 0.570801C40.1499 0.570801 40.2826 0.621257 40.377 0.722168C40.4714 0.823079 40.5186 0.973633 40.5186 1.17383C40.5186 1.36751 40.4714 1.51725 40.377 1.62305C40.2842 1.72721 40.1515 1.7793 39.979 1.7793C39.8049 1.7793 39.6714 1.7264 39.5786 1.62061C39.4858 1.51318 39.4395 1.36426 39.4395 1.17383ZM44.3193 1.17383C44.3193 0.976888 44.3649 0.827148 44.4561 0.724609C44.5488 0.62207 44.6831 0.570801 44.8589 0.570801C45.0298 0.570801 45.1624 0.621257 45.2568 0.722168C45.3512 0.823079 45.3984 0.973633 45.3984 1.17383C45.3984 1.36751 45.3512 1.51725 45.2568 1.62305C45.1641 1.72721 45.0314 1.7793 44.8589 1.7793C44.6847 1.7793 44.5513 1.7264 44.4585 1.62061C44.3657 1.51318 44.3193 1.36426 44.3193 1.17383ZM49.1992 1.17383C49.1992 0.976888 49.2448 0.827148 49.3359 0.724609C49.4287 0.62207 49.563 0.570801 49.7388 0.570801C49.9097 0.570801 50.0423 0.621257 50.1367 0.722168C50.2311 0.823079 50.2783 0.973633 50.2783 1.17383C50.2783 1.36751 50.2311 1.51725 50.1367 1.62305C50.0439 1.72721 49.9113 1.7793 49.7388 1.7793C49.5646 1.7793 49.4312 1.7264 49.3384 1.62061C49.2456 1.51318 49.1992 1.36426 49.1992 1.17383ZM54.0791 1.17383C54.0791 0.976888 54.1247 0.827148 54.2158 0.724609C54.3086 0.62207 54.4429 0.570801 54.6187 0.570801C54.7896 0.570801 54.9222 0.621257 55.0166 0.722168C55.111 0.823079 55.1582 0.973633 55.1582 1.17383C55.1582 1.36751 55.111 1.51725 55.0166 1.62305C54.9238 1.72721 54.7912 1.7793 54.6187 1.7793C54.4445 1.7793 54.311 1.7264 54.2183 1.62061C54.1255 1.51318 54.0791 1.36426 54.0791 1.17383ZM58.959 1.17383C58.959 0.976888 59.0046 0.827148 59.0957 0.724609C59.1885 0.62207 59.3228 0.570801 59.4985 0.570801C59.6694 0.570801 59.8021 0.621257 59.8965 0.722168C59.9909 0.823079 60.0381 0.973633 60.0381 1.17383C60.0381 1.36751 59.9909 1.51725 59.8965 1.62305C59.8037 1.72721 59.6711 1.7793 59.4985 1.7793C59.3244 1.7793 59.1909 1.7264 59.0981 1.62061C59.0054 1.51318 58.959 1.36426 58.959 1.17383ZM63.8389 1.17383C63.8389 0.976888 63.8844 0.827148 63.9756 0.724609C64.0684 0.62207 64.2026 0.570801 64.3784 0.570801C64.5493 0.570801 64.682 0.621257 64.7764 0.722168C64.8708 0.823079 64.918 0.973633 64.918 1.17383C64.918 1.36751 64.8708 1.51725 64.7764 1.62305C64.6836 1.72721 64.5509 1.7793 64.3784 1.7793C64.2043 1.7793 64.0708 1.7264 63.978 1.62061C63.8853 1.51318 63.8389 1.36426 63.8389 1.17383ZM68.7188 1.17383C68.7188 0.976888 68.7643 0.827148 68.8555 0.724609C68.9482 0.62207 69.0825 0.570801 69.2583 0.570801C69.4292 0.570801 69.5618 0.621257 69.6562 0.722168C69.7507 0.823079 69.7979 0.973633 69.7979 1.17383C69.7979 1.36751 69.7507 1.51725 69.6562 1.62305C69.5635 1.72721 69.4308 1.7793 69.2583 1.7793C69.0841 1.7793 68.9507 1.7264 68.8579 1.62061C68.7651 1.51318 68.7188 1.36426 68.7188 1.17383ZM73.5986 1.17383C73.5986 0.976888 73.6442 0.827148 73.7354 0.724609C73.8281 0.62207 73.9624 0.570801 74.1382 0.570801C74.3091 0.570801 74.4417 0.621257 74.5361 0.722168C74.6305 0.823079 74.6777 0.973633 74.6777 1.17383C74.6777 1.36751 74.6305 1.51725 74.5361 1.62305C74.4434 1.72721 74.3107 1.7793 74.1382 1.7793C73.964 1.7793 73.8306 1.7264 73.7378 1.62061C73.645 1.51318 73.5986 1.36426 73.5986 1.17383ZM78.4785 1.17383C78.4785 0.976888 78.5241 0.827148 78.6152 0.724609C78.708 0.62207 78.8423 0.570801 79.0181 0.570801C79.189 0.570801 79.3216 0.621257 79.416 0.722168C79.5104 0.823079 79.5576 0.973633 79.5576 1.17383C79.5576 1.36751 79.5104 1.51725 79.416 1.62305C79.3232 1.72721 79.1906 1.7793 79.0181 1.7793C78.8439 1.7793 78.7104 1.7264 78.6177 1.62061C78.5249 1.51318 78.4785 1.36426 78.4785 1.17383ZM83.3584 1.17383C83.3584 0.976888 83.404 0.827148 83.4951 0.724609C83.5879 0.62207 83.7222 0.570801 83.8979 0.570801C84.0688 0.570801 84.2015 0.621257 84.2959 0.722168C84.3903 0.823079 84.4375 0.973633 84.4375 1.17383C84.4375 1.36751 84.3903 1.51725 84.2959 1.62305C84.2031 1.72721 84.0705 1.7793 83.8979 1.7793C83.7238 1.7793 83.5903 1.7264 83.4976 1.62061C83.4048 1.51318 83.3584 1.36426 83.3584 1.17383ZM88.2383 1.17383C88.2383 0.976888 88.2839 0.827148 88.375 0.724609C88.4678 0.62207 88.6021 0.570801 88.7778 0.570801C88.9487 0.570801 89.0814 0.621257 89.1758 0.722168C89.2702 0.823079 89.3174 0.973633 89.3174 1.17383C89.3174 1.36751 89.2702 1.51725 89.1758 1.62305C89.083 1.72721 88.9504 1.7793 88.7778 1.7793C88.6037 1.7793 88.4702 1.7264 88.3774 1.62061C88.2847 1.51318 88.2383 1.36426 88.2383 1.17383ZM93.1182 1.17383C93.1182 0.976888 93.1637 0.827148 93.2549 0.724609C93.3477 0.62207 93.4819 0.570801 93.6577 0.570801C93.8286 0.570801 93.9613 0.621257 94.0557 0.722168C94.1501 0.823079 94.1973 0.973633 94.1973 1.17383C94.1973 1.36751 94.1501 1.51725 94.0557 1.62305C93.9629 1.72721 93.8302 1.7793 93.6577 1.7793C93.4836 1.7793 93.3501 1.7264 93.2573 1.62061C93.1646 1.51318 93.1182 1.36426 93.1182 1.17383ZM97.998 1.17383C97.998 0.976888 98.0436 0.827148 98.1348 0.724609C98.2275 0.62207 98.3618 0.570801 98.5376 0.570801C98.7085 0.570801 98.8411 0.621257 98.9355 0.722168C99.0299 0.823079 99.0771 0.973633 99.0771 1.17383C99.0771 1.36751 99.0299 1.51725 98.9355 1.62305C98.8428 1.72721 98.7101 1.7793 98.5376 1.7793C98.3634 1.7793 98.23 1.7264 98.1372 1.62061C98.0444 1.51318 97.998 1.36426 97.998 1.17383ZM102.878 1.17383C102.878 0.976888 102.924 0.827148 103.015 0.724609C103.107 0.62207 103.242 0.570801 103.417 0.570801C103.588 0.570801 103.721 0.621257 103.815 0.722168C103.91 0.823079 103.957 0.973633 103.957 1.17383C103.957 1.36751 103.91 1.51725 103.815 1.62305C103.723 1.72721 103.59 1.7793 103.417 1.7793C103.243 1.7793 103.11 1.7264 103.017 1.62061C102.924 1.51318 102.878 1.36426 102.878 1.17383ZM107.758 1.17383C107.758 0.976888 107.803 0.827148 107.895 0.724609C107.987 0.62207 108.122 0.570801 108.297 0.570801C108.468 0.570801 108.601 0.621257 108.695 0.722168C108.79 0.823079 108.837 0.973633 108.837 1.17383C108.837 1.36751 108.79 1.51725 108.695 1.62305C108.603 1.72721 108.47 1.7793 108.297 1.7793C108.123 1.7793 107.99 1.7264 107.897 1.62061C107.804 1.51318 107.758 1.36426 107.758 1.17383ZM112.638 1.17383C112.638 0.976888 112.683 0.827148 112.774 0.724609C112.867 0.62207 113.001 0.570801 113.177 0.570801C113.348 0.570801 113.481 0.621257 113.575 0.722168C113.67 0.823079 113.717 0.973633 113.717 1.17383C113.717 1.36751 113.67 1.51725 113.575 1.62305C113.482 1.72721 113.35 1.7793 113.177 1.7793C113.003 1.7793 112.87 1.7264 112.777 1.62061C112.684 1.51318 112.638 1.36426 112.638 1.17383ZM117.518 1.17383C117.518 0.976888 117.563 0.827148 117.654 0.724609C117.747 0.62207 117.881 0.570801 118.057 0.570801C118.228 0.570801 118.361 0.621257 118.455 0.722168C118.549 0.823079 118.597 0.973633 118.597 1.17383C118.597 1.36751 118.549 1.51725 118.455 1.62305C118.362 1.72721 118.23 1.7793 118.057 1.7793C117.883 1.7793 117.75 1.7264 117.657 1.62061C117.564 1.51318 117.518 1.36426 117.518 1.17383ZM122.397 1.17383C122.397 0.976888 122.443 0.827148 122.534 0.724609C122.627 0.62207 122.761 0.570801 122.937 0.570801C123.108 0.570801 123.241 0.621257 123.335 0.722168C123.429 0.823079 123.477 0.973633 123.477 1.17383C123.477 1.36751 123.429 1.51725 123.335 1.62305C123.242 1.72721 123.11 1.7793 122.937 1.7793C122.763 1.7793 122.629 1.7264 122.537 1.62061C122.444 1.51318 122.397 1.36426 122.397 1.17383ZM127.277 1.17383C127.277 0.976888 127.323 0.827148 127.414 0.724609C127.507 0.62207 127.641 0.570801 127.817 0.570801C127.988 0.570801 128.12 0.621257 128.215 0.722168C128.309 0.823079 128.356 0.973633 128.356 1.17383C128.356 1.36751 128.309 1.51725 128.215 1.62305C128.122 1.72721 127.989 1.7793 127.817 1.7793C127.643 1.7793 127.509 1.7264 127.417 1.62061C127.324 1.51318 127.277 1.36426 127.277 1.17383ZM132.157 1.17383C132.157 0.976888 132.203 0.827148 132.294 0.724609C132.387 0.62207 132.521 0.570801 132.697 0.570801C132.868 0.570801 133 0.621257 133.095 0.722168C133.189 0.823079 133.236 0.973633 133.236 1.17383C133.236 1.36751 133.189 1.51725 133.095 1.62305C133.002 1.72721 132.869 1.7793 132.697 1.7793C132.523 1.7793 132.389 1.7264 132.296 1.62061C132.204 1.51318 132.157 1.36426 132.157 1.17383ZM137.037 1.17383C137.037 0.976888 137.083 0.827148 137.174 0.724609C137.267 0.62207 137.401 0.570801 137.577 0.570801C137.748 0.570801 137.88 0.621257 137.975 0.722168C138.069 0.823079 138.116 0.973633 138.116 1.17383C138.116 1.36751 138.069 1.51725 137.975 1.62305C137.882 1.72721 137.749 1.7793 137.577 1.7793C137.403 1.7793 137.269 1.7264 137.176 1.62061C137.083 1.51318 137.037 1.36426 137.037 1.17383ZM141.917 1.17383C141.917 0.976888 141.963 0.827148 142.054 0.724609C142.146 0.62207 142.281 0.570801 142.457 0.570801C142.627 0.570801 142.76 0.621257 142.854 0.722168C142.949 0.823079 142.996 0.973633 142.996 1.17383C142.996 1.36751 142.949 1.51725 142.854 1.62305C142.762 1.72721 142.629 1.7793 142.457 1.7793C142.282 1.7793 142.149 1.7264 142.056 1.62061C141.963 1.51318 141.917 1.36426 141.917 1.17383ZM146.797 1.17383C146.797 0.976888 146.842 0.827148 146.934 0.724609C147.026 0.62207 147.161 0.570801 147.336 0.570801C147.507 0.570801 147.64 0.621257 147.734 0.722168C147.829 0.823079 147.876 0.973633 147.876 1.17383C147.876 1.36751 147.829 1.51725 147.734 1.62305C147.642 1.72721 147.509 1.7793 147.336 1.7793C147.162 1.7793 147.029 1.7264 146.936 1.62061C146.843 1.51318 146.797 1.36426 146.797 1.17383ZM151.677 1.17383C151.677 0.976888 151.722 0.827148 151.813 0.724609C151.906 0.62207 152.041 0.570801 152.216 0.570801C152.387 0.570801 152.52 0.621257 152.614 0.722168C152.709 0.823079 152.756 0.973633 152.756 1.17383C152.756 1.36751 152.709 1.51725 152.614 1.62305C152.521 1.72721 152.389 1.7793 152.216 1.7793C152.042 1.7793 151.909 1.7264 151.816 1.62061C151.723 1.51318 151.677 1.36426 151.677 1.17383ZM156.557 1.17383C156.557 0.976888 156.602 0.827148 156.693 0.724609C156.786 0.62207 156.92 0.570801 157.096 0.570801C157.267 0.570801 157.4 0.621257 157.494 0.722168C157.589 0.823079 157.636 0.973633 157.636 1.17383C157.636 1.36751 157.589 1.51725 157.494 1.62305C157.401 1.72721 157.269 1.7793 157.096 1.7793C156.922 1.7793 156.789 1.7264 156.696 1.62061C156.603 1.51318 156.557 1.36426 156.557 1.17383ZM161.437 1.17383C161.437 0.976888 161.482 0.827148 161.573 0.724609C161.666 0.62207 161.8 0.570801 161.976 0.570801C162.147 0.570801 162.28 0.621257 162.374 0.722168C162.468 0.823079 162.516 0.973633 162.516 1.17383C162.516 1.36751 162.468 1.51725 162.374 1.62305C162.281 1.72721 162.149 1.7793 161.976 1.7793C161.802 1.7793 161.668 1.7264 161.576 1.62061C161.483 1.51318 161.437 1.36426 161.437 1.17383ZM166.316 1.17383C166.316 0.976888 166.362 0.827148 166.453 0.724609C166.546 0.62207 166.68 0.570801 166.856 0.570801C167.027 0.570801 167.16 0.621257 167.254 0.722168C167.348 0.823079 167.396 0.973633 167.396 1.17383C167.396 1.36751 167.348 1.51725 167.254 1.62305C167.161 1.72721 167.028 1.7793 166.856 1.7793C166.682 1.7793 166.548 1.7264 166.456 1.62061C166.363 1.51318 166.316 1.36426 166.316 1.17383ZM171.196 1.17383C171.196 0.976888 171.242 0.827148 171.333 0.724609C171.426 0.62207 171.56 0.570801 171.736 0.570801C171.907 0.570801 172.039 0.621257 172.134 0.722168C172.228 0.823079 172.275 0.973633 172.275 1.17383C172.275 1.36751 172.228 1.51725 172.134 1.62305C172.041 1.72721 171.908 1.7793 171.736 1.7793C171.562 1.7793 171.428 1.7264 171.335 1.62061C171.243 1.51318 171.196 1.36426 171.196 1.17383ZM176.076 1.17383C176.076 0.976888 176.122 0.827148 176.213 0.724609C176.306 0.62207 176.44 0.570801 176.616 0.570801C176.787 0.570801 176.919 0.621257 177.014 0.722168C177.108 0.823079 177.155 0.973633 177.155 1.17383C177.155 1.36751 177.108 1.51725 177.014 1.62305C176.921 1.72721 176.788 1.7793 176.616 1.7793C176.442 1.7793 176.308 1.7264 176.215 1.62061C176.123 1.51318 176.076 1.36426 176.076 1.17383ZM180.956 1.17383C180.956 0.976888 181.002 0.827148 181.093 0.724609C181.186 0.62207 181.32 0.570801 181.496 0.570801C181.667 0.570801 181.799 0.621257 181.894 0.722168C181.988 0.823079 182.035 0.973633 182.035 1.17383C182.035 1.36751 181.988 1.51725 181.894 1.62305C181.801 1.72721 181.668 1.7793 181.496 1.7793C181.321 1.7793 181.188 1.7264 181.095 1.62061C181.002 1.51318 180.956 1.36426 180.956 1.17383ZM185.836 1.17383C185.836 0.976888 185.882 0.827148 185.973 0.724609C186.065 0.62207 186.2 0.570801 186.375 0.570801C186.546 0.570801 186.679 0.621257 186.773 0.722168C186.868 0.823079 186.915 0.973633 186.915 1.17383C186.915 1.36751 186.868 1.51725 186.773 1.62305C186.681 1.72721 186.548 1.7793 186.375 1.7793C186.201 1.7793 186.068 1.7264 185.975 1.62061C185.882 1.51318 185.836 1.36426 185.836 1.17383ZM190.716 1.17383C190.716 0.976888 190.761 0.827148 190.853 0.724609C190.945 0.62207 191.08 0.570801 191.255 0.570801C191.426 0.570801 191.559 0.621257 191.653 0.722168C191.748 0.823079 191.795 0.973633 191.795 1.17383C191.795 1.36751 191.748 1.51725 191.653 1.62305C191.561 1.72721 191.428 1.7793 191.255 1.7793C191.081 1.7793 190.948 1.7264 190.855 1.62061C190.762 1.51318 190.716 1.36426 190.716 1.17383ZM195.596 1.17383C195.596 0.976888 195.641 0.827148 195.732 0.724609C195.825 0.62207 195.959 0.570801 196.135 0.570801C196.306 0.570801 196.439 0.621257 196.533 0.722168C196.628 0.823079 196.675 0.973633 196.675 1.17383C196.675 1.36751 196.628 1.51725 196.533 1.62305C196.44 1.72721 196.308 1.7793 196.135 1.7793C195.961 1.7793 195.828 1.7264 195.735 1.62061C195.642 1.51318 195.596 1.36426 195.596 1.17383ZM200.476 1.17383C200.476 0.976888 200.521 0.827148 200.612 0.724609C200.705 0.62207 200.839 0.570801 201.015 0.570801C201.186 0.570801 201.319 0.621257 201.413 0.722168C201.507 0.823079 201.555 0.973633 201.555 1.17383C201.555 1.36751 201.507 1.51725 201.413 1.62305C201.32 1.72721 201.188 1.7793 201.015 1.7793C200.841 1.7793 200.708 1.7264 200.615 1.62061C200.522 1.51318 200.476 1.36426 200.476 1.17383ZM205.355 1.17383C205.355 0.976888 205.401 0.827148 205.492 0.724609C205.585 0.62207 205.719 0.570801 205.895 0.570801C206.066 0.570801 206.199 0.621257 206.293 0.722168C206.387 0.823079 206.435 0.973633 206.435 1.17383C206.435 1.36751 206.387 1.51725 206.293 1.62305C206.2 1.72721 206.068 1.7793 205.895 1.7793C205.721 1.7793 205.587 1.7264 205.495 1.62061C205.402 1.51318 205.355 1.36426 205.355 1.17383ZM0.400391 1.17383C0.400391 0.976888 0.445964 0.827148 0.537109 0.724609C0.629883 0.62207 0.76416 0.570801 0.939941 0.570801C1.11084 0.570801 1.24349 0.621257 1.33789 0.722168C1.43229 0.823079 1.47949 0.973633 1.47949 1.17383C1.47949 1.36751 1.43229 1.51725 1.33789 1.62305C1.24512 1.72721 1.11247 1.7793 0.939941 1.7793C0.765788 1.7793 0.632324 1.7264 0.539551 1.62061C0.446777 1.51318 0.400391 1.36426 0.400391 1.17383ZM5.28027 1.17383C5.28027 0.976888 5.32585 0.827148 5.41699 0.724609C5.50977 0.62207 5.64404 0.570801 5.81982 0.570801C5.99072 0.570801 6.12337 0.621257 6.21777 0.722168C6.31217 0.823079 6.35938 0.973633 6.35938 1.17383C6.35938 1.36751 6.31217 1.51725 6.21777 1.62305C6.125 1.72721 5.99235 1.7793 5.81982 1.7793C5.64567 1.7793 5.51221 1.7264 5.41943 1.62061C5.32666 1.51318 5.28027 1.36426 5.28027 1.17383ZM10.1602 1.17383C10.1602 0.976888 10.2057 0.827148 10.2969 0.724609C10.3896 0.62207 10.5239 0.570801 10.6997 0.570801C10.8706 0.570801 11.0033 0.621257 11.0977 0.722168C11.1921 0.823079 11.2393 0.973633 11.2393 1.17383C11.2393 1.36751 11.1921 1.51725 11.0977 1.62305C11.0049 1.72721 10.8722 1.7793 10.6997 1.7793C10.5256 1.7793 10.3921 1.7264 10.2993 1.62061C10.2065 1.51318 10.1602 1.36426 10.1602 1.17383ZM15.04 1.17383C15.04 0.976888 15.0856 0.827148 15.1768 0.724609C15.2695 0.62207 15.4038 0.570801 15.5796 0.570801C15.7505 0.570801 15.8831 0.621257 15.9775 0.722168C16.0719 0.823079 16.1191 0.973633 16.1191 1.17383C16.1191 1.36751 16.0719 1.51725 15.9775 1.62305C15.8848 1.72721 15.7521 1.7793 15.5796 1.7793C15.4054 1.7793 15.272 1.7264 15.1792 1.62061C15.0864 1.51318 15.04 1.36426 15.04 1.17383ZM19.9199 1.17383C19.9199 0.976888 19.9655 0.827148 20.0566 0.724609C20.1494 0.62207 20.2837 0.570801 20.4595 0.570801C20.6304 0.570801 20.763 0.621257 20.8574 0.722168C20.9518 0.823079 20.999 0.973633 20.999 1.17383C20.999 1.36751 20.9518 1.51725 20.8574 1.62305C20.7646 1.72721 20.632 1.7793 20.4595 1.7793C20.2853 1.7793 20.1519 1.7264 20.0591 1.62061C19.9663 1.51318 19.9199 1.36426 19.9199 1.17383ZM24.7998 1.17383C24.7998 0.976888 24.8454 0.827148 24.9365 0.724609C25.0293 0.62207 25.1636 0.570801 25.3394 0.570801C25.5103 0.570801 25.6429 0.621257 25.7373 0.722168C25.8317 0.823079 25.8789 0.973633 25.8789 1.17383C25.8789 1.36751 25.8317 1.51725 25.7373 1.62305C25.6445 1.72721 25.5119 1.7793 25.3394 1.7793C25.1652 1.7793 25.0317 1.7264 24.939 1.62061C24.8462 1.51318 24.7998 1.36426 24.7998 1.17383ZM29.6797 1.17383C29.6797 0.976888 29.7253 0.827148 29.8164 0.724609C29.9092 0.62207 30.0435 0.570801 30.2192 0.570801C30.3901 0.570801 30.5228 0.621257 30.6172 0.722168C30.7116 0.823079 30.7588 0.973633 30.7588 1.17383C30.7588 1.36751 30.7116 1.51725 30.6172 1.62305C30.5244 1.72721 30.3918 1.7793 30.2192 1.7793C30.0451 1.7793 29.9116 1.7264 29.8188 1.62061C29.7261 1.51318 29.6797 1.36426 29.6797 1.17383ZM34.5596 1.17383C34.5596 0.976888 34.6051 0.827148 34.6963 0.724609C34.7891 0.62207 34.9233 0.570801 35.0991 0.570801C35.27 0.570801 35.4027 0.621257 35.4971 0.722168C35.5915 0.823079 35.6387 0.973633 35.6387 1.17383C35.6387 1.36751 35.5915 1.51725 35.4971 1.62305C35.4043 1.72721 35.2716 1.7793 35.0991 1.7793C34.925 1.7793 34.7915 1.7264 34.6987 1.62061C34.606 1.51318 34.5596 1.36426 34.5596 1.17383ZM39.4395 1.17383C39.4395 0.976888 39.485 0.827148 39.5762 0.724609C39.6689 0.62207 39.8032 0.570801 39.979 0.570801C40.1499 0.570801 40.2826 0.621257 40.377 0.722168C40.4714 0.823079 40.5186 0.973633 40.5186 1.17383C40.5186 1.36751 40.4714 1.51725 40.377 1.62305C40.2842 1.72721 40.1515 1.7793 39.979 1.7793C39.8049 1.7793 39.6714 1.7264 39.5786 1.62061C39.4858 1.51318 39.4395 1.36426 39.4395 1.17383ZM44.3193 1.17383C44.3193 0.976888 44.3649 0.827148 44.4561 0.724609C44.5488 0.62207 44.6831 0.570801 44.8589 0.570801C45.0298 0.570801 45.1624 0.621257 45.2568 0.722168C45.3512 0.823079 45.3984 0.973633 45.3984 1.17383C45.3984 1.36751 45.3512 1.51725 45.2568 1.62305C45.1641 1.72721 45.0314 1.7793 44.8589 1.7793C44.6847 1.7793 44.5513 1.7264 44.4585 1.62061C44.3657 1.51318 44.3193 1.36426 44.3193 1.17383ZM49.1992 1.17383C49.1992 0.976888 49.2448 0.827148 49.3359 0.724609C49.4287 0.62207 49.563 0.570801 49.7388 0.570801C49.9097 0.570801 50.0423 0.621257 50.1367 0.722168C50.2311 0.823079 50.2783 0.973633 50.2783 1.17383C50.2783 1.36751 50.2311 1.51725 50.1367 1.62305C50.0439 1.72721 49.9113 1.7793 49.7388 1.7793C49.5646 1.7793 49.4312 1.7264 49.3384 1.62061C49.2456 1.51318 49.1992 1.36426 49.1992 1.17383ZM54.0791 1.17383C54.0791 0.976888 54.1247 0.827148 54.2158 0.724609C54.3086 0.62207 54.4429 0.570801 54.6187 0.570801C54.7896 0.570801 54.9222 0.621257 55.0166 0.722168C55.111 0.823079 55.1582 0.973633 55.1582 1.17383C55.1582 1.36751 55.111 1.51725 55.0166 1.62305C54.9238 1.72721 54.7912 1.7793 54.6187 1.7793C54.4445 1.7793 54.311 1.7264 54.2183 1.62061C54.1255 1.51318 54.0791 1.36426 54.0791 1.17383ZM58.959 1.17383C58.959 0.976888 59.0046 0.827148 59.0957 0.724609C59.1885 0.62207 59.3228 0.570801 59.4985 0.570801C59.6694 0.570801 59.8021 0.621257 59.8965 0.722168C59.9909 0.823079 60.0381 0.973633 60.0381 1.17383C60.0381 1.36751 59.9909 1.51725 59.8965 1.62305C59.8037 1.72721 59.6711 1.7793 59.4985 1.7793C59.3244 1.7793 59.1909 1.7264 59.0981 1.62061C59.0054 1.51318 58.959 1.36426 58.959 1.17383ZM63.8389 1.17383C63.8389 0.976888 63.8844 0.827148 63.9756 0.724609C64.0684 0.62207 64.2026 0.570801 64.3784 0.570801C64.5493 0.570801 64.682 0.621257 64.7764 0.722168C64.8708 0.823079 64.918 0.973633 64.918 1.17383C64.918 1.36751 64.8708 1.51725 64.7764 1.62305C64.6836 1.72721 64.5509 1.7793 64.3784 1.7793C64.2043 1.7793 64.0708 1.7264 63.978 1.62061C63.8853 1.51318 63.8389 1.36426 63.8389 1.17383ZM68.7188 1.17383C68.7188 0.976888 68.7643 0.827148 68.8555 0.724609C68.9482 0.62207 69.0825 0.570801 69.2583 0.570801C69.4292 0.570801 69.5618 0.621257 69.6562 0.722168C69.7507 0.823079 69.7979 0.973633 69.7979 1.17383C69.7979 1.36751 69.7507 1.51725 69.6562 1.62305C69.5635 1.72721 69.4308 1.7793 69.2583 1.7793C69.0841 1.7793 68.9507 1.7264 68.8579 1.62061C68.7651 1.51318 68.7188 1.36426 68.7188 1.17383ZM73.5986 1.17383C73.5986 0.976888 73.6442 0.827148 73.7354 0.724609C73.8281 0.62207 73.9624 0.570801 74.1382 0.570801C74.3091 0.570801 74.4417 0.621257 74.5361 0.722168C74.6305 0.823079 74.6777 0.973633 74.6777 1.17383C74.6777 1.36751 74.6305 1.51725 74.5361 1.62305C74.4434 1.72721 74.3107 1.7793 74.1382 1.7793C73.964 1.7793 73.8306 1.7264 73.7378 1.62061C73.645 1.51318 73.5986 1.36426 73.5986 1.17383ZM78.4785 1.17383C78.4785 0.976888 78.5241 0.827148 78.6152 0.724609C78.708 0.62207 78.8423 0.570801 79.0181 0.570801C79.189 0.570801 79.3216 0.621257 79.416 0.722168C79.5104 0.823079 79.5576 0.973633 79.5576 1.17383C79.5576 1.36751 79.5104 1.51725 79.416 1.62305C79.3232 1.72721 79.1906 1.7793 79.0181 1.7793C78.8439 1.7793 78.7104 1.7264 78.6177 1.62061C78.5249 1.51318 78.4785 1.36426 78.4785 1.17383ZM83.3584 1.17383C83.3584 0.976888 83.404 0.827148 83.4951 0.724609C83.5879 0.62207 83.7222 0.570801 83.8979 0.570801C84.0688 0.570801 84.2015 0.621257 84.2959 0.722168C84.3903 0.823079 84.4375 0.973633 84.4375 1.17383C84.4375 1.36751 84.3903 1.51725 84.2959 1.62305C84.2031 1.72721 84.0705 1.7793 83.8979 1.7793C83.7238 1.7793 83.5903 1.7264 83.4976 1.62061C83.4048 1.51318 83.3584 1.36426 83.3584 1.17383ZM88.2383 1.17383C88.2383 0.976888 88.2839 0.827148 88.375 0.724609C88.4678 0.62207 88.6021 0.570801 88.7778 0.570801C88.9487 0.570801 89.0814 0.621257 89.1758 0.722168C89.2702 0.823079 89.3174 0.973633 89.3174 1.17383C89.3174 1.36751 89.2702 1.51725 89.1758 1.62305C89.083 1.72721 88.9504 1.7793 88.7778 1.7793C88.6037 1.7793 88.4702 1.7264 88.3774 1.62061C88.2847 1.51318 88.2383 1.36426 88.2383 1.17383ZM93.1182 1.17383C93.1182 0.976888 93.1637 0.827148 93.2549 0.724609C93.3477 0.62207 93.4819 0.570801 93.6577 0.570801C93.8286 0.570801 93.9613 0.621257 94.0557 0.722168C94.1501 0.823079 94.1973 0.973633 94.1973 1.17383C94.1973 1.36751 94.1501 1.51725 94.0557 1.62305C93.9629 1.72721 93.8302 1.7793 93.6577 1.7793C93.4836 1.7793 93.3501 1.7264 93.2573 1.62061C93.1646 1.51318 93.1182 1.36426 93.1182 1.17383ZM97.998 1.17383C97.998 0.976888 98.0436 0.827148 98.1348 0.724609C98.2275 0.62207 98.3618 0.570801 98.5376 0.570801C98.7085 0.570801 98.8411 0.621257 98.9355 0.722168C99.0299 0.823079 99.0771 0.973633 99.0771 1.17383C99.0771 1.36751 99.0299 1.51725 98.9355 1.62305C98.8428 1.72721 98.7101 1.7793 98.5376 1.7793C98.3634 1.7793 98.23 1.7264 98.1372 1.62061C98.0444 1.51318 97.998 1.36426 97.998 1.17383ZM102.878 1.17383C102.878 0.976888 102.924 0.827148 103.015 0.724609C103.107 0.62207 103.242 0.570801 103.417 0.570801C103.588 0.570801 103.721 0.621257 103.815 0.722168C103.91 0.823079 103.957 0.973633 103.957 1.17383C103.957 1.36751 103.91 1.51725 103.815 1.62305C103.723 1.72721 103.59 1.7793 103.417 1.7793C103.243 1.7793 103.11 1.7264 103.017 1.62061C102.924 1.51318 102.878 1.36426 102.878 1.17383ZM107.758 1.17383C107.758 0.976888 107.803 0.827148 107.895 0.724609C107.987 0.62207 108.122 0.570801 108.297 0.570801C108.468 0.570801 108.601 0.621257 108.695 0.722168C108.79 0.823079 108.837 0.973633 108.837 1.17383C108.837 1.36751 108.79 1.51725 108.695 1.62305C108.603 1.72721 108.47 1.7793 108.297 1.7793C108.123 1.7793 107.99 1.7264 107.897 1.62061C107.804 1.51318 107.758 1.36426 107.758 1.17383ZM112.638 1.17383C112.638 0.976888 112.683 0.827148 112.774 0.724609C112.867 0.62207 113.001 0.570801 113.177 0.570801C113.348 0.570801 113.481 0.621257 113.575 0.722168C113.67 0.823079 113.717 0.973633 113.717 1.17383C113.717 1.36751 113.67 1.51725 113.575 1.62305C113.482 1.72721 113.35 1.7793 113.177 1.7793C113.003 1.7793 112.87 1.7264 112.777 1.62061C112.684 1.51318 112.638 1.36426 112.638 1.17383ZM117.518 1.17383C117.518 0.976888 117.563 0.827148 117.654 0.724609C117.747 0.62207 117.881 0.570801 118.057 0.570801C118.228 0.570801 118.361 0.621257 118.455 0.722168C118.549 0.823079 118.597 0.973633 118.597 1.17383C118.597 1.36751 118.549 1.51725 118.455 1.62305C118.362 1.72721 118.23 1.7793 118.057 1.7793C117.883 1.7793 117.75 1.7264 117.657 1.62061C117.564 1.51318 117.518 1.36426 117.518 1.17383ZM122.397 1.17383C122.397 0.976888 122.443 0.827148 122.534 0.724609C122.627 0.62207 122.761 0.570801 122.937 0.570801C123.108 0.570801 123.241 0.621257 123.335 0.722168C123.429 0.823079 123.477 0.973633 123.477 1.17383C123.477 1.36751 123.429 1.51725 123.335 1.62305C123.242 1.72721 123.11 1.7793 122.937 1.7793C122.763 1.7793 122.629 1.7264 122.537 1.62061C122.444 1.51318 122.397 1.36426 122.397 1.17383ZM127.277 1.17383C127.277 0.976888 127.323 0.827148 127.414 0.724609C127.507 0.62207 127.641 0.570801 127.817 0.570801C127.988 0.570801 128.12 0.621257 128.215 0.722168C128.309 0.823079 128.356 0.973633 128.356 1.17383C128.356 1.36751 128.309 1.51725 128.215 1.62305C128.122 1.72721 127.989 1.7793 127.817 1.7793C127.643 1.7793 127.509 1.7264 127.417 1.62061C127.324 1.51318 127.277 1.36426 127.277 1.17383ZM132.157 1.17383C132.157 0.976888 132.203 0.827148 132.294 0.724609C132.387 0.62207 132.521 0.570801 132.697 0.570801C132.868 0.570801 133 0.621257 133.095 0.722168C133.189 0.823079 133.236 0.973633 133.236 1.17383C133.236 1.36751 133.189 1.51725 133.095 1.62305C133.002 1.72721 132.869 1.7793 132.697 1.7793C132.523 1.7793 132.389 1.7264 132.296 1.62061C132.204 1.51318 132.157 1.36426 132.157 1.17383ZM137.037 1.17383C137.037 0.976888 137.083 0.827148 137.174 0.724609C137.267 0.62207 137.401 0.570801 137.577 0.570801C137.748 0.570801 137.88 0.621257 137.975 0.722168C138.069 0.823079 138.116 0.973633 138.116 1.17383C138.116 1.36751 138.069 1.51725 137.975 1.62305C137.882 1.72721 137.749 1.7793 137.577 1.7793C137.403 1.7793 137.269 1.7264 137.176 1.62061C137.083 1.51318 137.037 1.36426 137.037 1.17383ZM141.917 1.17383C141.917 0.976888 141.963 0.827148 142.054 0.724609C142.146 0.62207 142.281 0.570801 142.457 0.570801C142.627 0.570801 142.76 0.621257 142.854 0.722168C142.949 0.823079 142.996 0.973633 142.996 1.17383C142.996 1.36751 142.949 1.51725 142.854 1.62305C142.762 1.72721 142.629 1.7793 142.457 1.7793C142.282 1.7793 142.149 1.7264 142.056 1.62061C141.963 1.51318 141.917 1.36426 141.917 1.17383ZM146.797 1.17383C146.797 0.976888 146.842 0.827148 146.934 0.724609C147.026 0.62207 147.161 0.570801 147.336 0.570801C147.507 0.570801 147.64 0.621257 147.734 0.722168C147.829 0.823079 147.876 0.973633 147.876 1.17383C147.876 1.36751 147.829 1.51725 147.734 1.62305C147.642 1.72721 147.509 1.7793 147.336 1.7793C147.162 1.7793 147.029 1.7264 146.936 1.62061C146.843 1.51318 146.797 1.36426 146.797 1.17383ZM151.677 1.17383C151.677 0.976888 151.722 0.827148 151.813 0.724609C151.906 0.62207 152.041 0.570801 152.216 0.570801C152.387 0.570801 152.52 0.621257 152.614 0.722168C152.709 0.823079 152.756 0.973633 152.756 1.17383C152.756 1.36751 152.709 1.51725 152.614 1.62305C152.521 1.72721 152.389 1.7793 152.216 1.7793C152.042 1.7793 151.909 1.7264 151.816 1.62061C151.723 1.51318 151.677 1.36426 151.677 1.17383ZM156.557 1.17383C156.557 0.976888 156.602 0.827148 156.693 0.724609C156.786 0.62207 156.92 0.570801 157.096 0.570801C157.267 0.570801 157.4 0.621257 157.494 0.722168C157.589 0.823079 157.636 0.973633 157.636 1.17383C157.636 1.36751 157.589 1.51725 157.494 1.62305C157.401 1.72721 157.269 1.7793 157.096 1.7793C156.922 1.7793 156.789 1.7264 156.696 1.62061C156.603 1.51318 156.557 1.36426 156.557 1.17383ZM161.437 1.17383C161.437 0.976888 161.482 0.827148 161.573 0.724609C161.666 0.62207 161.8 0.570801 161.976 0.570801C162.147 0.570801 162.28 0.621257 162.374 0.722168C162.468 0.823079 162.516 0.973633 162.516 1.17383C162.516 1.36751 162.468 1.51725 162.374 1.62305C162.281 1.72721 162.149 1.7793 161.976 1.7793C161.802 1.7793 161.668 1.7264 161.576 1.62061C161.483 1.51318 161.437 1.36426 161.437 1.17383ZM166.316 1.17383C166.316 0.976888 166.362 0.827148 166.453 0.724609C166.546 0.62207 166.68 0.570801 166.856 0.570801C167.027 0.570801 167.16 0.621257 167.254 0.722168C167.348 0.823079 167.396 0.973633 167.396 1.17383C167.396 1.36751 167.348 1.51725 167.254 1.62305C167.161 1.72721 167.028 1.7793 166.856 1.7793C166.682 1.7793 166.548 1.7264 166.456 1.62061C166.363 1.51318 166.316 1.36426 166.316 1.17383ZM171.196 1.17383C171.196 0.976888 171.242 0.827148 171.333 0.724609C171.426 0.62207 171.56 0.570801 171.736 0.570801C171.907 0.570801 172.039 0.621257 172.134 0.722168C172.228 0.823079 172.275 0.973633 172.275 1.17383C172.275 1.36751 172.228 1.51725 172.134 1.62305C172.041 1.72721 171.908 1.7793 171.736 1.7793C171.562 1.7793 171.428 1.7264 171.335 1.62061C171.243 1.51318 171.196 1.36426 171.196 1.17383ZM176.076 1.17383C176.076 0.976888 176.122 0.827148 176.213 0.724609C176.306 0.62207 176.44 0.570801 176.616 0.570801C176.787 0.570801 176.919 0.621257 177.014 0.722168C177.108 0.823079 177.155 0.973633 177.155 1.17383C177.155 1.36751 177.108 1.51725 177.014 1.62305C176.921 1.72721 176.788 1.7793 176.616 1.7793C176.442 1.7793 176.308 1.7264 176.215 1.62061C176.123 1.51318 176.076 1.36426 176.076 1.17383ZM180.956 1.17383C180.956 0.976888 181.002 0.827148 181.093 0.724609C181.186 0.62207 181.32 0.570801 181.496 0.570801C181.667 0.570801 181.799 0.621257 181.894 0.722168C181.988 0.823079 182.035 0.973633 182.035 1.17383C182.035 1.36751 181.988 1.51725 181.894 1.62305C181.801 1.72721 181.668 1.7793 181.496 1.7793C181.321 1.7793 181.188 1.7264 181.095 1.62061C181.002 1.51318 180.956 1.36426 180.956 1.17383ZM185.836 1.17383C185.836 0.976888 185.882 0.827148 185.973 0.724609C186.065 0.62207 186.2 0.570801 186.375 0.570801C186.546 0.570801 186.679 0.621257 186.773 0.722168C186.868 0.823079 186.915 0.973633 186.915 1.17383C186.915 1.36751 186.868 1.51725 186.773 1.62305C186.681 1.72721 186.548 1.7793 186.375 1.7793C186.201 1.7793 186.068 1.7264 185.975 1.62061C185.882 1.51318 185.836 1.36426 185.836 1.17383Z" fill="currentColor"/>
</svg>
