<svg width="25" height="25" viewBox="0 0 25 25" fill="none" xmlns="http://www.w3.org/2000/svg">
<path d="M18.75 21.875C20.4759 21.875 21.875 20.4759 21.875 18.75C21.875 17.0241 20.4759 15.625 18.75 15.625C17.0241 15.625 15.625 17.0241 15.625 18.75C15.625 20.4759 17.0241 21.875 18.75 21.875Z" stroke="#FF862F" stroke-width="2" stroke-linecap="round" stroke-linejoin="round"/>
<path d="M6.25 9.375C7.97589 9.375 9.375 7.97589 9.375 6.25C9.375 4.52411 7.97589 3.125 6.25 3.125C4.52411 3.125 3.125 4.52411 3.125 6.25C3.125 7.97589 4.52411 9.375 6.25 9.375Z" stroke="#FF862F" stroke-width="2" stroke-linecap="round" stroke-linejoin="round"/>
<path d="M13.541 6.25H16.666C17.2185 6.25 17.7485 6.46949 18.1392 6.86019C18.5299 7.25089 18.7493 7.7808 18.7493 8.33333V15.625" stroke="#FF862F" stroke-width="2" stroke-linecap="round" stroke-linejoin="round"/>
<path d="M6.25 9.375V21.875" stroke="#FF862F" stroke-width="2" stroke-linecap="round" stroke-linejoin="round"/>
</svg>
