<svg width="207" height="2" fill="currentColor" xmlns="http://www.w3.org/2000/svg"><path d="M.4 1.174C.4.977.446.827.537.724.63.623.764.572.94.572c.17 0 .303.05.398.151.094.101.141.252.141.452 0 .194-.047.343-.141.45-.093.103-.226.155-.398.155-.174 0-.308-.053-.4-.158C.447 1.513.4 1.364.4 1.174zm4.88 0c0-.197.046-.347.137-.45.093-.102.227-.153.403-.153.17 0 .303.05.398.151.094.101.141.252.141.452 0 .194-.047.343-.141.45-.093.103-.226.155-.398.155-.174 0-.308-.053-.4-.158-.093-.108-.14-.257-.14-.447zm4.88 0c0-.197.046-.347.137-.45.093-.102.227-.153.403-.153.17 0 .303.05.398.151.094.101.141.252.141.452 0 .194-.047.343-.141.45-.093.103-.226.155-.398.155-.174 0-.308-.053-.4-.158-.094-.108-.14-.257-.14-.447zm4.88 0c0-.197.046-.347.137-.45.093-.102.227-.153.403-.153.17 0 .303.05.397.151.095.101.142.252.142.452 0 .194-.047.343-.142.45-.092.103-.225.155-.397.155-.175 0-.308-.053-.4-.158-.094-.108-.14-.257-.14-.447zm4.88 0c0-.197.045-.347.137-.45.092-.102.227-.153.402-.153.171 0 .304.05.398.151.095.101.142.252.142.452 0 .194-.047.343-.142.45-.092.103-.225.155-.398.155-.174 0-.307-.053-.4-.158-.093-.108-.14-.257-.14-.447zm4.88 0c0-.197.045-.347.136-.45.093-.102.228-.153.403-.153.171 0 .304.05.398.151.095.101.142.252.142.452 0 .194-.047.343-.142.45-.092.103-.225.155-.398.155-.174 0-.307-.053-.4-.158-.093-.108-.14-.257-.14-.447zm4.88 0c0-.197.045-.347.136-.45.093-.102.228-.153.403-.153.171 0 .304.05.398.151.095.101.142.252.142.452 0 .194-.047.343-.142.45-.093.103-.225.155-.398.155-.174 0-.307-.053-.4-.158-.093-.108-.14-.257-.14-.447zm4.88 0c0-.197.045-.347.136-.45.093-.102.227-.153.403-.153.171 0 .304.05.398.151.095.101.142.252.142.452 0 .194-.047.343-.142.45-.093.103-.225.155-.398.155-.174 0-.307-.053-.4-.158-.093-.108-.14-.257-.14-.447zm4.88 0c0-.197.045-.347.136-.45.093-.102.227-.153.403-.153.17 0 .304.05.398.151.094.101.142.252.142.452 0 .194-.048.343-.142.45-.093.103-.226.155-.398.155-.174 0-.308-.053-.4-.158-.093-.108-.14-.257-.14-.447zm4.88 0c0-.197.045-.347.136-.45.093-.102.227-.153.403-.153.17 0 .303.05.398.151.094.101.141.252.141.452 0 .194-.047.343-.141.45-.093.103-.226.155-.398.155-.174 0-.308-.053-.4-.158-.093-.108-.14-.257-.14-.447zm4.88 0c0-.197.045-.347.136-.45.093-.102.227-.153.403-.153.17 0 .303.05.398.151.094.101.141.252.141.452 0 .194-.047.343-.141.45-.093.103-.226.155-.398.155-.174 0-.308-.053-.4-.158-.093-.108-.14-.257-.14-.447zm4.88 0c0-.197.045-.347.136-.45.093-.102.227-.153.403-.153.17 0 .303.05.398.151.094.101.141.252.141.452 0 .194-.047.343-.141.45-.093.103-.226.155-.398.155-.175 0-.308-.053-.4-.158-.093-.108-.14-.257-.14-.447zm4.879 0c0-.197.046-.347.137-.45.093-.102.227-.153.403-.153.17 0 .303.05.398.151.094.101.141.252.141.452 0 .194-.047.343-.141.45-.093.103-.226.155-.398.155-.175 0-.308-.053-.4-.158-.094-.108-.14-.257-.14-.447zm4.88 0c0-.197.045-.347.137-.45.092-.102.227-.153.402-.153.171 0 .304.05.398.151.095.101.142.252.142.452 0 .194-.047.343-.142.45-.092.103-.225.155-.398.155-.174 0-.307-.053-.4-.158-.093-.108-.14-.257-.14-.447zm4.88 0c0-.197.045-.347.137-.45.092-.102.227-.153.402-.153.171 0 .304.05.398.151.095.101.142.252.142.452 0 .194-.047.343-.142.45-.093.103-.225.155-.398.155-.174 0-.307-.053-.4-.158-.093-.108-.14-.257-.14-.447zm4.88 0c0-.197.045-.347.136-.45.093-.102.227-.153.403-.153.171 0 .304.05.398.151.094.101.142.252.142.452 0 .194-.047.343-.142.45-.093.103-.225.155-.398.155-.174 0-.307-.053-.4-.158-.093-.108-.14-.257-.14-.447zm4.88 0c0-.197.045-.347.136-.45.093-.102.227-.153.403-.153.171 0 .304.05.398.151.094.101.142.252.142.452 0 .194-.048.343-.142.45-.093.103-.225.155-.398.155-.174 0-.308-.053-.4-.158-.093-.108-.14-.257-.14-.447zm4.88 0c0-.197.045-.347.136-.45.093-.102.227-.153.403-.153.17 0 .303.05.398.151.094.101.141.252.141.452 0 .194-.047.343-.141.45-.093.103-.226.155-.398.155-.174 0-.308-.053-.4-.158-.093-.108-.14-.257-.14-.447zm4.88 0c0-.197.045-.347.136-.45.093-.102.227-.153.403-.153.17 0 .303.05.398.151.094.101.141.252.141.452 0 .194-.047.343-.141.45-.093.103-.226.155-.398.155-.174 0-.308-.053-.4-.158-.093-.108-.14-.257-.14-.447zm4.88 0c0-.197.045-.347.136-.45.093-.102.227-.153.403-.153.17 0 .303.05.398.151.094.101.141.252.141.452 0 .194-.047.343-.141.45-.093.103-.226.155-.398.155-.174 0-.308-.053-.4-.158-.093-.108-.14-.257-.14-.447zm4.879 0c0-.197.046-.347.137-.45.093-.102.227-.153.403-.153.17 0 .303.05.398.151.094.101.141.252.141.452 0 .194-.047.343-.141.45-.093.103-.226.155-.398.155-.175 0-.308-.053-.4-.158-.094-.108-.14-.257-.14-.447zm4.88 0c0-.197.046-.347.137-.45.092-.102.227-.153.402-.153.171 0 .304.05.398.151.095.101.142.252.142.452 0 .194-.047.343-.142.45-.092.103-.225.155-.398.155-.174 0-.307-.053-.4-.158-.093-.108-.139-.257-.139-.447zm4.88 0c0-.197.045-.347.137-.45.092-.102.227-.153.402-.153.171 0 .304.05.398.151.095.101.142.252.142.452 0 .194-.047.343-.142.45-.092.103-.225.155-.398.155-.174 0-.307-.053-.4-.158-.093-.108-.139-.257-.139-.447zm4.88 0c0-.197.045-.347.136-.45.093-.102.227-.153.403-.153.171 0 .304.05.398.151.095.101.142.252.142.452 0 .194-.047.343-.142.45-.093.103-.225.155-.398.155-.174 0-.307-.053-.4-.158-.093-.108-.139-.257-.139-.447zm4.88 0c0-.197.045-.347.136-.45.093-.102.227-.153.403-.153.171 0 .304.05.398.151.094.101.142.252.142.452 0 .194-.048.343-.142.45-.093.103-.225.155-.398.155-.174 0-.307-.053-.4-.158-.093-.108-.139-.257-.139-.447zm4.879 0c0-.197.046-.347.137-.45.093-.102.227-.153.403-.153.171 0 .304.05.398.151.094.101.142.252.142.452 0 .194-.048.343-.142.45-.093.103-.225.155-.398.155-.174 0-.308-.053-.4-.158-.093-.108-.14-.257-.14-.447zm4.88 0c0-.197.046-.347.137-.45.093-.102.227-.153.403-.153a.52.52 0 01.398.151c.094.101.141.252.141.452 0 .194-.047.343-.141.45-.093.103-.226.155-.398.155-.174 0-.308-.053-.4-.158-.093-.108-.14-.257-.14-.447zm4.88 0c0-.197.046-.347.137-.45.093-.102.227-.153.403-.153a.52.52 0 01.398.151c.094.101.141.252.141.452 0 .194-.047.343-.141.45-.093.103-.226.155-.398.155-.174 0-.308-.053-.401-.158-.092-.108-.139-.257-.139-.447zm4.88 0c0-.197.046-.347.137-.45.093-.102.227-.153.403-.153a.52.52 0 01.398.151c.094.101.141.252.141.452 0 .194-.047.343-.141.45-.093.103-.226.155-.398.155-.174 0-.308-.053-.401-.158-.093-.108-.139-.257-.139-.447zm4.88 0c0-.197.046-.347.137-.45.092-.102.227-.153.403-.153.17 0 .303.05.397.151.095.101.142.252.142.452 0 .194-.047.343-.142.45-.092.103-.225.155-.397.155-.175 0-.308-.053-.401-.158-.093-.108-.139-.257-.139-.447zm4.88 0c0-.197.045-.347.137-.45.092-.102.227-.153.402-.153.171 0 .304.05.398.151.095.101.142.252.142.452 0 .194-.047.343-.142.45-.092.103-.225.155-.398.155-.174 0-.307-.053-.4-.158-.093-.108-.139-.257-.139-.447zm4.88 0c0-.197.045-.347.136-.45.093-.102.228-.153.403-.153.171 0 .304.05.398.151.095.101.142.252.142.452 0 .194-.047.343-.142.45-.093.103-.225.155-.398.155-.174 0-.307-.053-.4-.158-.093-.108-.139-.257-.139-.447zm4.88 0c0-.197.045-.347.136-.45.093-.102.227-.153.403-.153.171 0 .304.05.398.151.095.101.142.252.142.452 0 .194-.047.343-.142.45-.093.103-.225.155-.398.155-.174 0-.307-.053-.4-.158-.093-.108-.139-.257-.139-.447zm4.88 0c0-.197.045-.347.136-.45.093-.102.227-.153.403-.153.171 0 .304.05.398.151.094.101.142.252.142.452 0 .194-.048.343-.142.45-.093.103-.225.155-.398.155-.174 0-.308-.053-.4-.158-.093-.108-.139-.257-.139-.447zm4.879 0c0-.197.046-.347.137-.45.093-.102.227-.153.403-.153.171 0 .304.05.398.151.094.101.142.252.142.452 0 .194-.048.343-.142.45-.093.103-.226.155-.398.155-.174 0-.308-.053-.4-.158-.093-.108-.14-.257-.14-.447zm4.88 0c0-.197.046-.347.137-.45.093-.102.227-.153.403-.153a.52.52 0 01.398.151c.094.101.141.252.141.452 0 .194-.047.343-.141.45-.093.103-.226.155-.398.155-.174 0-.308-.053-.401-.158-.092-.108-.139-.257-.139-.447zm4.88 0c0-.197.046-.347.137-.45.093-.102.227-.153.403-.153a.52.52 0 01.398.151c.094.101.141.252.141.452 0 .194-.047.343-.141.45-.093.103-.226.155-.398.155-.174 0-.308-.053-.401-.158-.092-.108-.139-.257-.139-.447zm4.88 0c0-.197.046-.347.137-.45.093-.102.227-.153.403-.153a.52.52 0 01.398.151c.094.101.141.252.141.452 0 .194-.047.343-.141.45-.093.103-.226.155-.398.155-.175 0-.308-.053-.401-.158-.093-.108-.139-.257-.139-.447zm4.88 0c0-.197.046-.347.137-.45.092-.102.227-.153.402-.153.171 0 .304.05.398.151.095.101.142.252.142.452 0 .194-.047.343-.142.45-.092.103-.225.155-.398.155-.174 0-.307-.053-.4-.158-.093-.108-.139-.257-.139-.447zm4.88 0c0-.197.045-.347.137-.45.092-.102.227-.153.402-.153.171 0 .304.05.398.151.095.101.142.252.142.452 0 .194-.047.343-.142.45-.092.103-.225.155-.398.155-.174 0-.307-.053-.4-.158-.093-.108-.139-.257-.139-.447zm4.88 0c0-.197.045-.347.136-.45.093-.102.227-.153.403-.153.171 0 .304.05.398.151.095.101.142.252.142.452 0 .194-.047.343-.142.45-.093.103-.225.155-.398.155-.174 0-.307-.053-.4-.158-.093-.108-.139-.257-.139-.447zm4.88 0c0-.197.045-.347.136-.45.093-.102.227-.153.403-.153.171 0 .304.05.398.151.094.101.142.252.142.452 0 .194-.048.343-.142.45-.093.103-.225.155-.398.155-.174 0-.307-.053-.4-.158-.093-.108-.139-.257-.139-.447zm4.879 0c0-.197.046-.347.137-.45.093-.102.227-.153.403-.153.171 0 .304.05.398.151.094.101.142.252.142.452 0 .194-.048.343-.142.45-.093.103-.225.155-.398.155-.174 0-.308-.053-.4-.158-.093-.108-.14-.257-.14-.447zM.4 1.174C.4.977.446.827.537.724.63.623.764.572.94.572c.17 0 .303.05.398.151.094.101.141.252.141.452 0 .194-.047.343-.141.45-.093.103-.226.155-.398.155-.174 0-.308-.053-.4-.158C.447 1.513.4 1.364.4 1.174zm4.88 0c0-.197.046-.347.137-.45.093-.102.227-.153.403-.153.17 0 .303.05.398.151.094.101.141.252.141.452 0 .194-.047.343-.141.45-.093.103-.226.155-.398.155-.174 0-.308-.053-.4-.158-.093-.108-.14-.257-.14-.447zm4.88 0c0-.197.046-.347.137-.45.093-.102.227-.153.403-.153.17 0 .303.05.398.151.094.101.141.252.141.452 0 .194-.047.343-.141.45-.093.103-.226.155-.398.155-.174 0-.308-.053-.4-.158-.094-.108-.14-.257-.14-.447zm4.88 0c0-.197.046-.347.137-.45.093-.102.227-.153.403-.153.17 0 .303.05.397.151.095.101.142.252.142.452 0 .194-.047.343-.142.45-.092.103-.225.155-.397.155-.175 0-.308-.053-.4-.158-.094-.108-.14-.257-.14-.447zm4.88 0c0-.197.045-.347.137-.45.092-.102.227-.153.402-.153.171 0 .304.05.398.151.095.101.142.252.142.452 0 .194-.047.343-.142.45-.092.103-.225.155-.398.155-.174 0-.307-.053-.4-.158-.093-.108-.14-.257-.14-.447zm4.88 0c0-.197.045-.347.136-.45.093-.102.228-.153.403-.153.171 0 .304.05.398.151.095.101.142.252.142.452 0 .194-.047.343-.142.45-.092.103-.225.155-.398.155-.174 0-.307-.053-.4-.158-.093-.108-.14-.257-.14-.447zm4.88 0c0-.197.045-.347.136-.45.093-.102.228-.153.403-.153.171 0 .304.05.398.151.095.101.142.252.142.452 0 .194-.047.343-.142.45-.093.103-.225.155-.398.155-.174 0-.307-.053-.4-.158-.093-.108-.14-.257-.14-.447zm4.88 0c0-.197.045-.347.136-.45.093-.102.227-.153.403-.153.171 0 .304.05.398.151.095.101.142.252.142.452 0 .194-.047.343-.142.45-.093.103-.225.155-.398.155-.174 0-.307-.053-.4-.158-.093-.108-.14-.257-.14-.447zm4.88 0c0-.197.045-.347.136-.45.093-.102.227-.153.403-.153.17 0 .304.05.398.151.094.101.142.252.142.452 0 .194-.048.343-.142.45-.093.103-.226.155-.398.155-.174 0-.308-.053-.4-.158-.093-.108-.14-.257-.14-.447zm4.88 0c0-.197.045-.347.136-.45.093-.102.227-.153.403-.153.17 0 .303.05.398.151.094.101.141.252.141.452 0 .194-.047.343-.141.45-.093.103-.226.155-.398.155-.174 0-.308-.053-.4-.158-.093-.108-.14-.257-.14-.447zm4.88 0c0-.197.045-.347.136-.45.093-.102.227-.153.403-.153.17 0 .303.05.398.151.094.101.141.252.141.452 0 .194-.047.343-.141.45-.093.103-.226.155-.398.155-.174 0-.308-.053-.4-.158-.093-.108-.14-.257-.14-.447zm4.88 0c0-.197.045-.347.136-.45.093-.102.227-.153.403-.153.17 0 .303.05.398.151.094.101.141.252.141.452 0 .194-.047.343-.141.45-.093.103-.226.155-.398.155-.175 0-.308-.053-.4-.158-.093-.108-.14-.257-.14-.447zm4.879 0c0-.197.046-.347.137-.45.093-.102.227-.153.403-.153.17 0 .303.05.398.151.094.101.141.252.141.452 0 .194-.047.343-.141.45-.093.103-.226.155-.398.155-.175 0-.308-.053-.4-.158-.094-.108-.14-.257-.14-.447zm4.88 0c0-.197.045-.347.137-.45.092-.102.227-.153.402-.153.171 0 .304.05.398.151.095.101.142.252.142.452 0 .194-.047.343-.142.45-.092.103-.225.155-.398.155-.174 0-.307-.053-.4-.158-.093-.108-.14-.257-.14-.447zm4.88 0c0-.197.045-.347.137-.45.092-.102.227-.153.402-.153.171 0 .304.05.398.151.095.101.142.252.142.452 0 .194-.047.343-.142.45-.093.103-.225.155-.398.155-.174 0-.307-.053-.4-.158-.093-.108-.14-.257-.14-.447zm4.88 0c0-.197.045-.347.136-.45.093-.102.227-.153.403-.153.171 0 .304.05.398.151.094.101.142.252.142.452 0 .194-.047.343-.142.45-.093.103-.225.155-.398.155-.174 0-.307-.053-.4-.158-.093-.108-.14-.257-.14-.447zm4.88 0c0-.197.045-.347.136-.45.093-.102.227-.153.403-.153.171 0 .304.05.398.151.094.101.142.252.142.452 0 .194-.048.343-.142.45-.093.103-.225.155-.398.155-.174 0-.308-.053-.4-.158-.093-.108-.14-.257-.14-.447zm4.88 0c0-.197.045-.347.136-.45.093-.102.227-.153.403-.153.17 0 .303.05.398.151.094.101.141.252.141.452 0 .194-.047.343-.141.45-.093.103-.226.155-.398.155-.174 0-.308-.053-.4-.158-.093-.108-.14-.257-.14-.447zm4.88 0c0-.197.045-.347.136-.45.093-.102.227-.153.403-.153.17 0 .303.05.398.151.094.101.141.252.141.452 0 .194-.047.343-.141.45-.093.103-.226.155-.398.155-.174 0-.308-.053-.4-.158-.093-.108-.14-.257-.14-.447zm4.88 0c0-.197.045-.347.136-.45.093-.102.227-.153.403-.153.17 0 .303.05.398.151.094.101.141.252.141.452 0 .194-.047.343-.141.45-.093.103-.226.155-.398.155-.174 0-.308-.053-.4-.158-.093-.108-.14-.257-.14-.447zm4.879 0c0-.197.046-.347.137-.45.093-.102.227-.153.403-.153.17 0 .303.05.398.151.094.101.141.252.141.452 0 .194-.047.343-.141.45-.093.103-.226.155-.398.155-.175 0-.308-.053-.4-.158-.094-.108-.14-.257-.14-.447zm4.88 0c0-.197.046-.347.137-.45.092-.102.227-.153.402-.153.171 0 .304.05.398.151.095.101.142.252.142.452 0 .194-.047.343-.142.45-.092.103-.225.155-.398.155-.174 0-.307-.053-.4-.158-.093-.108-.139-.257-.139-.447zm4.88 0c0-.197.045-.347.137-.45.092-.102.227-.153.402-.153.171 0 .304.05.398.151.095.101.142.252.142.452 0 .194-.047.343-.142.45-.092.103-.225.155-.398.155-.174 0-.307-.053-.4-.158-.093-.108-.139-.257-.139-.447zm4.88 0c0-.197.045-.347.136-.45.093-.102.227-.153.403-.153.171 0 .304.05.398.151.095.101.142.252.142.452 0 .194-.047.343-.142.45-.093.103-.225.155-.398.155-.174 0-.307-.053-.4-.158-.093-.108-.139-.257-.139-.447zm4.88 0c0-.197.045-.347.136-.45.093-.102.227-.153.403-.153.171 0 .304.05.398.151.094.101.142.252.142.452 0 .194-.048.343-.142.45-.093.103-.225.155-.398.155-.174 0-.307-.053-.4-.158-.093-.108-.139-.257-.139-.447zm4.879 0c0-.197.046-.347.137-.45.093-.102.227-.153.403-.153.171 0 .304.05.398.151.094.101.142.252.142.452 0 .194-.048.343-.142.45-.093.103-.225.155-.398.155-.174 0-.308-.053-.4-.158-.093-.108-.14-.257-.14-.447zm4.88 0c0-.197.046-.347.137-.45.093-.102.227-.153.403-.153a.52.52 0 01.398.151c.094.101.141.252.141.452 0 .194-.047.343-.141.45-.093.103-.226.155-.398.155-.174 0-.308-.053-.4-.158-.093-.108-.14-.257-.14-.447zm4.88 0c0-.197.046-.347.137-.45.093-.102.227-.153.403-.153a.52.52 0 01.398.151c.094.101.141.252.141.452 0 .194-.047.343-.141.45-.093.103-.226.155-.398.155-.174 0-.308-.053-.401-.158-.092-.108-.139-.257-.139-.447zm4.88 0c0-.197.046-.347.137-.45.093-.102.227-.153.403-.153a.52.52 0 01.398.151c.094.101.141.252.141.452 0 .194-.047.343-.141.45-.093.103-.226.155-.398.155-.174 0-.308-.053-.401-.158-.093-.108-.139-.257-.139-.447zm4.88 0c0-.197.046-.347.137-.45.092-.102.227-.153.403-.153.17 0 .303.05.397.151.095.101.142.252.142.452 0 .194-.047.343-.142.45-.092.103-.225.155-.397.155-.175 0-.308-.053-.401-.158-.093-.108-.139-.257-.139-.447zm4.88 0c0-.197.045-.347.137-.45.092-.102.227-.153.402-.153.171 0 .304.05.398.151.095.101.142.252.142.452 0 .194-.047.343-.142.45-.092.103-.225.155-.398.155-.174 0-.307-.053-.4-.158-.093-.108-.139-.257-.139-.447zm4.88 0c0-.197.045-.347.136-.45.093-.102.228-.153.403-.153.171 0 .304.05.398.151.095.101.142.252.142.452 0 .194-.047.343-.142.45-.093.103-.225.155-.398.155-.174 0-.307-.053-.4-.158-.093-.108-.139-.257-.139-.447zm4.88 0c0-.197.045-.347.136-.45.093-.102.227-.153.403-.153.171 0 .304.05.398.151.095.101.142.252.142.452 0 .194-.047.343-.142.45-.093.103-.225.155-.398.155-.174 0-.307-.053-.4-.158-.093-.108-.139-.257-.139-.447zm4.88 0c0-.197.045-.347.136-.45.093-.102.227-.153.403-.153.171 0 .304.05.398.151.094.101.142.252.142.452 0 .194-.048.343-.142.45-.093.103-.225.155-.398.155-.174 0-.308-.053-.4-.158-.093-.108-.139-.257-.139-.447zm4.879 0c0-.197.046-.347.137-.45.093-.102.227-.153.403-.153.171 0 .304.05.398.151.094.101.142.252.142.452 0 .194-.048.343-.142.45-.093.103-.226.155-.398.155-.174 0-.308-.053-.4-.158-.093-.108-.14-.257-.14-.447zm4.88 0c0-.197.046-.347.137-.45.093-.102.227-.153.403-.153a.52.52 0 01.398.151c.094.101.141.252.141.452 0 .194-.047.343-.141.45-.093.103-.226.155-.398.155-.174 0-.308-.053-.401-.158-.092-.108-.139-.257-.139-.447zm4.88 0c0-.197.046-.347.137-.45.093-.102.227-.153.403-.153a.52.52 0 01.398.151c.094.101.141.252.141.452 0 .194-.047.343-.141.45-.093.103-.226.155-.398.155-.174 0-.308-.053-.401-.158-.092-.108-.139-.257-.139-.447zm4.88 0c0-.197.046-.347.137-.45.093-.102.227-.153.403-.153a.52.52 0 01.398.151c.094.101.141.252.141.452 0 .194-.047.343-.141.45-.093.103-.226.155-.398.155-.175 0-.308-.053-.401-.158-.093-.108-.139-.257-.139-.447zm4.88 0c0-.197.046-.347.137-.45.092-.102.227-.153.402-.153.171 0 .304.05.398.151.095.101.142.252.142.452 0 .194-.047.343-.142.45-.092.103-.225.155-.398.155-.174 0-.307-.053-.4-.158-.093-.108-.139-.257-.139-.447zm4.88 0c0-.197.045-.347.137-.45.092-.102.227-.153.402-.153.171 0 .304.05.398.151.095.101.142.252.142.452 0 .194-.047.343-.142.45-.092.103-.225.155-.398.155-.174 0-.307-.053-.4-.158-.093-.108-.139-.257-.139-.447zm4.88 0c0-.197.045-.347.136-.45.093-.102.227-.153.403-.153.171 0 .304.05.398.151.095.101.142.252.142.452 0 .194-.047.343-.142.45-.093.103-.225.155-.398.155-.174 0-.307-.053-.4-.158-.093-.108-.139-.257-.139-.447zm4.88 0c0-.197.045-.347.136-.45.093-.102.227-.153.403-.153.171 0 .304.05.398.151.094.101.142.252.142.452 0 .194-.048.343-.142.45-.093.103-.225.155-.398.155-.174 0-.307-.053-.4-.158-.093-.108-.139-.257-.139-.447zm4.879 0c0-.197.046-.347.137-.45.093-.102.227-.153.403-.153.171 0 .304.05.398.151.094.101.142.252.142.452 0 .194-.048.343-.142.45-.093.103-.225.155-.398.155-.174 0-.308-.053-.4-.158-.093-.108-.14-.257-.14-.447zM.4 1.174C.4.977.446.827.537.724.63.623.764.572.94.572c.17 0 .303.05.398.151.094.101.141.252.141.452 0 .194-.047.343-.141.45-.093.103-.226.155-.398.155-.174 0-.308-.053-.4-.158C.447 1.513.4 1.364.4 1.174zm4.88 0c0-.197.046-.347.137-.45.093-.102.227-.153.403-.153.17 0 .303.05.398.151.094.101.141.252.141.452 0 .194-.047.343-.141.45-.093.103-.226.155-.398.155-.174 0-.308-.053-.4-.158-.093-.108-.14-.257-.14-.447zm4.88 0c0-.197.046-.347.137-.45.093-.102.227-.153.403-.153.17 0 .303.05.398.151.094.101.141.252.141.452 0 .194-.047.343-.141.45-.093.103-.226.155-.398.155-.174 0-.308-.053-.4-.158-.094-.108-.14-.257-.14-.447zm4.88 0c0-.197.046-.347.137-.45.093-.102.227-.153.403-.153.17 0 .303.05.397.151.095.101.142.252.142.452 0 .194-.047.343-.142.45-.092.103-.225.155-.397.155-.175 0-.308-.053-.4-.158-.094-.108-.14-.257-.14-.447zm4.88 0c0-.197.045-.347.137-.45.092-.102.227-.153.402-.153.171 0 .304.05.398.151.095.101.142.252.142.452 0 .194-.047.343-.142.45-.092.103-.225.155-.398.155-.174 0-.307-.053-.4-.158-.093-.108-.14-.257-.14-.447zm4.88 0c0-.197.045-.347.136-.45.093-.102.228-.153.403-.153.171 0 .304.05.398.151.095.101.142.252.142.452 0 .194-.047.343-.142.45-.092.103-.225.155-.398.155-.174 0-.307-.053-.4-.158-.093-.108-.14-.257-.14-.447zm4.88 0c0-.197.045-.347.136-.45.093-.102.228-.153.403-.153.171 0 .304.05.398.151.095.101.142.252.142.452 0 .194-.047.343-.142.45-.093.103-.225.155-.398.155-.174 0-.307-.053-.4-.158-.093-.108-.14-.257-.14-.447zm4.88 0c0-.197.045-.347.136-.45.093-.102.227-.153.403-.153.171 0 .304.05.398.151.095.101.142.252.142.452 0 .194-.047.343-.142.45-.093.103-.225.155-.398.155-.174 0-.307-.053-.4-.158-.093-.108-.14-.257-.14-.447zm4.88 0c0-.197.045-.347.136-.45.093-.102.227-.153.403-.153.17 0 .304.05.398.151.094.101.142.252.142.452 0 .194-.048.343-.142.45-.093.103-.226.155-.398.155-.174 0-.308-.053-.4-.158-.093-.108-.14-.257-.14-.447zm4.88 0c0-.197.045-.347.136-.45.093-.102.227-.153.403-.153.17 0 .303.05.398.151.094.101.141.252.141.452 0 .194-.047.343-.141.45-.093.103-.226.155-.398.155-.174 0-.308-.053-.4-.158-.093-.108-.14-.257-.14-.447zm4.88 0c0-.197.045-.347.136-.45.093-.102.227-.153.403-.153.17 0 .303.05.398.151.094.101.141.252.141.452 0 .194-.047.343-.141.45-.093.103-.226.155-.398.155-.174 0-.308-.053-.4-.158-.093-.108-.14-.257-.14-.447zm4.88 0c0-.197.045-.347.136-.45.093-.102.227-.153.403-.153.17 0 .303.05.398.151.094.101.141.252.141.452 0 .194-.047.343-.141.45-.093.103-.226.155-.398.155-.175 0-.308-.053-.4-.158-.093-.108-.14-.257-.14-.447zm4.879 0c0-.197.046-.347.137-.45.093-.102.227-.153.403-.153.17 0 .303.05.398.151.094.101.141.252.141.452 0 .194-.047.343-.141.45-.093.103-.226.155-.398.155-.175 0-.308-.053-.4-.158-.094-.108-.14-.257-.14-.447zm4.88 0c0-.197.045-.347.137-.45.092-.102.227-.153.402-.153.171 0 .304.05.398.151.095.101.142.252.142.452 0 .194-.047.343-.142.45-.092.103-.225.155-.398.155-.174 0-.307-.053-.4-.158-.093-.108-.14-.257-.14-.447zm4.88 0c0-.197.045-.347.137-.45.092-.102.227-.153.402-.153.171 0 .304.05.398.151.095.101.142.252.142.452 0 .194-.047.343-.142.45-.093.103-.225.155-.398.155-.174 0-.307-.053-.4-.158-.093-.108-.14-.257-.14-.447zm4.88 0c0-.197.045-.347.136-.45.093-.102.227-.153.403-.153.171 0 .304.05.398.151.094.101.142.252.142.452 0 .194-.047.343-.142.45-.093.103-.225.155-.398.155-.174 0-.307-.053-.4-.158-.093-.108-.14-.257-.14-.447zm4.88 0c0-.197.045-.347.136-.45.093-.102.227-.153.403-.153.171 0 .304.05.398.151.094.101.142.252.142.452 0 .194-.048.343-.142.45-.093.103-.225.155-.398.155-.174 0-.308-.053-.4-.158-.093-.108-.14-.257-.14-.447zm4.88 0c0-.197.045-.347.136-.45.093-.102.227-.153.403-.153.17 0 .303.05.398.151.094.101.141.252.141.452 0 .194-.047.343-.141.45-.093.103-.226.155-.398.155-.174 0-.308-.053-.4-.158-.093-.108-.14-.257-.14-.447zm4.88 0c0-.197.045-.347.136-.45.093-.102.227-.153.403-.153.17 0 .303.05.398.151.094.101.141.252.141.452 0 .194-.047.343-.141.45-.093.103-.226.155-.398.155-.174 0-.308-.053-.4-.158-.093-.108-.14-.257-.14-.447zm4.88 0c0-.197.045-.347.136-.45.093-.102.227-.153.403-.153.17 0 .303.05.398.151.094.101.141.252.141.452 0 .194-.047.343-.141.45-.093.103-.226.155-.398.155-.174 0-.308-.053-.4-.158-.093-.108-.14-.257-.14-.447zm4.879 0c0-.197.046-.347.137-.45.093-.102.227-.153.403-.153.17 0 .303.05.398.151.094.101.141.252.141.452 0 .194-.047.343-.141.45-.093.103-.226.155-.398.155-.175 0-.308-.053-.4-.158-.094-.108-.14-.257-.14-.447zm4.88 0c0-.197.046-.347.137-.45.092-.102.227-.153.402-.153.171 0 .304.05.398.151.095.101.142.252.142.452 0 .194-.047.343-.142.45-.092.103-.225.155-.398.155-.174 0-.307-.053-.4-.158-.093-.108-.139-.257-.139-.447zm4.88 0c0-.197.045-.347.137-.45.092-.102.227-.153.402-.153.171 0 .304.05.398.151.095.101.142.252.142.452 0 .194-.047.343-.142.45-.092.103-.225.155-.398.155-.174 0-.307-.053-.4-.158-.093-.108-.139-.257-.139-.447zm4.88 0c0-.197.045-.347.136-.45.093-.102.227-.153.403-.153.171 0 .304.05.398.151.095.101.142.252.142.452 0 .194-.047.343-.142.45-.093.103-.225.155-.398.155-.174 0-.307-.053-.4-.158-.093-.108-.139-.257-.139-.447zm4.88 0c0-.197.045-.347.136-.45.093-.102.227-.153.403-.153.171 0 .304.05.398.151.094.101.142.252.142.452 0 .194-.048.343-.142.45-.093.103-.225.155-.398.155-.174 0-.307-.053-.4-.158-.093-.108-.139-.257-.139-.447zm4.879 0c0-.197.046-.347.137-.45.093-.102.227-.153.403-.153.171 0 .304.05.398.151.094.101.142.252.142.452 0 .194-.048.343-.142.45-.093.103-.225.155-.398.155-.174 0-.308-.053-.4-.158-.093-.108-.14-.257-.14-.447zm4.88 0c0-.197.046-.347.137-.45.093-.102.227-.153.403-.153a.52.52 0 01.398.151c.094.101.141.252.141.452 0 .194-.047.343-.141.45-.093.103-.226.155-.398.155-.174 0-.308-.053-.4-.158-.093-.108-.14-.257-.14-.447zm4.88 0c0-.197.046-.347.137-.45.093-.102.227-.153.403-.153a.52.52 0 01.398.151c.094.101.141.252.141.452 0 .194-.047.343-.141.45-.093.103-.226.155-.398.155-.174 0-.308-.053-.401-.158-.092-.108-.139-.257-.139-.447zm4.88 0c0-.197.046-.347.137-.45.093-.102.227-.153.403-.153a.52.52 0 01.398.151c.094.101.141.252.141.452 0 .194-.047.343-.141.45-.093.103-.226.155-.398.155-.174 0-.308-.053-.401-.158-.093-.108-.139-.257-.139-.447zm4.88 0c0-.197.046-.347.137-.45.092-.102.227-.153.403-.153.17 0 .303.05.397.151.095.101.142.252.142.452 0 .194-.047.343-.142.45-.092.103-.225.155-.397.155-.175 0-.308-.053-.401-.158-.093-.108-.139-.257-.139-.447zm4.88 0c0-.197.045-.347.137-.45.092-.102.227-.153.402-.153.171 0 .304.05.398.151.095.101.142.252.142.452 0 .194-.047.343-.142.45-.092.103-.225.155-.398.155-.174 0-.307-.053-.4-.158-.093-.108-.139-.257-.139-.447zm4.88 0c0-.197.045-.347.136-.45.093-.102.228-.153.403-.153.171 0 .304.05.398.151.095.101.142.252.142.452 0 .194-.047.343-.142.45-.093.103-.225.155-.398.155-.174 0-.307-.053-.4-.158-.093-.108-.139-.257-.139-.447zm4.88 0c0-.197.045-.347.136-.45.093-.102.227-.153.403-.153.171 0 .304.05.398.151.095.101.142.252.142.452 0 .194-.047.343-.142.45-.093.103-.225.155-.398.155-.174 0-.307-.053-.4-.158-.093-.108-.139-.257-.139-.447zm4.88 0c0-.197.045-.347.136-.45.093-.102.227-.153.403-.153.171 0 .304.05.398.151.094.101.142.252.142.452 0 .194-.048.343-.142.45-.093.103-.225.155-.398.155-.174 0-.308-.053-.4-.158-.093-.108-.139-.257-.139-.447zm4.879 0c0-.197.046-.347.137-.45.093-.102.227-.153.403-.153.171 0 .304.05.398.151.094.101.142.252.142.452 0 .194-.048.343-.142.45-.093.103-.226.155-.398.155-.174 0-.308-.053-.4-.158-.093-.108-.14-.257-.14-.447zm4.88 0c0-.197.046-.347.137-.45.093-.102.227-.153.403-.153a.52.52 0 01.398.151c.094.101.141.252.141.452 0 .194-.047.343-.141.45-.093.103-.226.155-.398.155-.174 0-.308-.053-.401-.158-.092-.108-.139-.257-.139-.447zm4.88 0c0-.197.046-.347.137-.45.093-.102.227-.153.403-.153a.52.52 0 01.398.151c.094.101.141.252.141.452 0 .194-.047.343-.141.45-.093.103-.226.155-.398.155-.174 0-.308-.053-.401-.158-.092-.108-.139-.257-.139-.447zm4.88 0c0-.197.046-.347.137-.45.093-.102.227-.153.403-.153a.52.52 0 01.398.151c.094.101.141.252.141.452 0 .194-.047.343-.141.45-.093.103-.226.155-.398.155-.175 0-.308-.053-.401-.158-.093-.108-.139-.257-.139-.447zm4.88 0c0-.197.046-.347.137-.45.092-.102.227-.153.402-.153.171 0 .304.05.398.151.095.101.142.252.142.452 0 .194-.047.343-.142.45-.092.103-.225.155-.398.155-.174 0-.307-.053-.4-.158-.093-.108-.139-.257-.139-.447zm4.88 0c0-.197.045-.347.137-.45.092-.102.227-.153.402-.153.171 0 .304.05.398.151.095.101.142.252.142.452 0 .194-.047.343-.142.45-.092.103-.225.155-.398.155-.174 0-.307-.053-.4-.158-.093-.108-.139-.257-.139-.447zm4.88 0c0-.197.045-.347.136-.45.093-.102.227-.153.403-.153.171 0 .304.05.398.151.095.101.142.252.142.452 0 .194-.047.343-.142.45-.093.103-.225.155-.398.155-.174 0-.307-.053-.4-.158-.093-.108-.139-.257-.139-.447zm4.88 0c0-.197.045-.347.136-.45.093-.102.227-.153.403-.153.171 0 .304.05.398.151.094.101.142.252.142.452 0 .194-.048.343-.142.45-.093.103-.225.155-.398.155-.174 0-.307-.053-.4-.158-.093-.108-.139-.257-.139-.447zm4.879 0c0-.197.046-.347.137-.45.093-.102.227-.153.403-.153.171 0 .304.05.398.151.094.101.142.252.142.452 0 .194-.048.343-.142.45-.093.103-.225.155-.398.155-.174 0-.308-.053-.4-.158-.093-.108-.14-.257-.14-.447zM.4 1.174C.4.977.446.827.537.724.63.623.764.572.94.572c.17 0 .303.05.398.151.094.101.141.252.141.452 0 .194-.047.343-.141.45-.093.103-.226.155-.398.155-.174 0-.308-.053-.4-.158C.447 1.513.4 1.364.4 1.174zm4.88 0c0-.197.046-.347.137-.45.093-.102.227-.153.403-.153.17 0 .303.05.398.151.094.101.141.252.141.452 0 .194-.047.343-.141.45-.093.103-.226.155-.398.155-.174 0-.308-.053-.4-.158-.093-.108-.14-.257-.14-.447zm4.88 0c0-.197.046-.347.137-.45.093-.102.227-.153.403-.153.17 0 .303.05.398.151.094.101.141.252.141.452 0 .194-.047.343-.141.45-.093.103-.226.155-.398.155-.174 0-.308-.053-.4-.158-.094-.108-.14-.257-.14-.447zm4.88 0c0-.197.046-.347.137-.45.093-.102.227-.153.403-.153.17 0 .303.05.397.151.095.101.142.252.142.452 0 .194-.047.343-.142.45-.092.103-.225.155-.397.155-.175 0-.308-.053-.4-.158-.094-.108-.14-.257-.14-.447zm4.88 0c0-.197.045-.347.137-.45.092-.102.227-.153.402-.153.171 0 .304.05.398.151.095.101.142.252.142.452 0 .194-.047.343-.142.45-.092.103-.225.155-.398.155-.174 0-.307-.053-.4-.158-.093-.108-.14-.257-.14-.447zm4.88 0c0-.197.045-.347.136-.45.093-.102.228-.153.403-.153.171 0 .304.05.398.151.095.101.142.252.142.452 0 .194-.047.343-.142.45-.092.103-.225.155-.398.155-.174 0-.307-.053-.4-.158-.093-.108-.14-.257-.14-.447zm4.88 0c0-.197.045-.347.136-.45.093-.102.228-.153.403-.153.171 0 .304.05.398.151.095.101.142.252.142.452 0 .194-.047.343-.142.45-.093.103-.225.155-.398.155-.174 0-.307-.053-.4-.158-.093-.108-.14-.257-.14-.447zm4.88 0c0-.197.045-.347.136-.45.093-.102.227-.153.403-.153.171 0 .304.05.398.151.095.101.142.252.142.452 0 .194-.047.343-.142.45-.093.103-.225.155-.398.155-.174 0-.307-.053-.4-.158-.093-.108-.14-.257-.14-.447zm4.88 0c0-.197.045-.347.136-.45.093-.102.227-.153.403-.153.17 0 .304.05.398.151.094.101.142.252.142.452 0 .194-.048.343-.142.45-.093.103-.226.155-.398.155-.174 0-.308-.053-.4-.158-.093-.108-.14-.257-.14-.447zm4.88 0c0-.197.045-.347.136-.45.093-.102.227-.153.403-.153.17 0 .303.05.398.151.094.101.141.252.141.452 0 .194-.047.343-.141.45-.093.103-.226.155-.398.155-.174 0-.308-.053-.4-.158-.093-.108-.14-.257-.14-.447zm4.88 0c0-.197.045-.347.136-.45.093-.102.227-.153.403-.153.17 0 .303.05.398.151.094.101.141.252.141.452 0 .194-.047.343-.141.45-.093.103-.226.155-.398.155-.174 0-.308-.053-.4-.158-.093-.108-.14-.257-.14-.447zm4.88 0c0-.197.045-.347.136-.45.093-.102.227-.153.403-.153.17 0 .303.05.398.151.094.101.141.252.141.452 0 .194-.047.343-.141.45-.093.103-.226.155-.398.155-.175 0-.308-.053-.4-.158-.093-.108-.14-.257-.14-.447zm4.879 0c0-.197.046-.347.137-.45.093-.102.227-.153.403-.153.17 0 .303.05.398.151.094.101.141.252.141.452 0 .194-.047.343-.141.45-.093.103-.226.155-.398.155-.175 0-.308-.053-.4-.158-.094-.108-.14-.257-.14-.447zm4.88 0c0-.197.045-.347.137-.45.092-.102.227-.153.402-.153.171 0 .304.05.398.151.095.101.142.252.142.452 0 .194-.047.343-.142.45-.092.103-.225.155-.398.155-.174 0-.307-.053-.4-.158-.093-.108-.14-.257-.14-.447zm4.88 0c0-.197.045-.347.137-.45.092-.102.227-.153.402-.153.171 0 .304.05.398.151.095.101.142.252.142.452 0 .194-.047.343-.142.45-.093.103-.225.155-.398.155-.174 0-.307-.053-.4-.158-.093-.108-.14-.257-.14-.447zm4.88 0c0-.197.045-.347.136-.45.093-.102.227-.153.403-.153.171 0 .304.05.398.151.094.101.142.252.142.452 0 .194-.047.343-.142.45-.093.103-.225.155-.398.155-.174 0-.307-.053-.4-.158-.093-.108-.14-.257-.14-.447zm4.88 0c0-.197.045-.347.136-.45.093-.102.227-.153.403-.153.171 0 .304.05.398.151.094.101.142.252.142.452 0 .194-.048.343-.142.45-.093.103-.225.155-.398.155-.174 0-.308-.053-.4-.158-.093-.108-.14-.257-.14-.447zm4.88 0c0-.197.045-.347.136-.45.093-.102.227-.153.403-.153.17 0 .303.05.398.151.094.101.141.252.141.452 0 .194-.047.343-.141.45-.093.103-.226.155-.398.155-.174 0-.308-.053-.4-.158-.093-.108-.14-.257-.14-.447zm4.88 0c0-.197.045-.347.136-.45.093-.102.227-.153.403-.153.17 0 .303.05.398.151.094.101.141.252.141.452 0 .194-.047.343-.141.45-.093.103-.226.155-.398.155-.174 0-.308-.053-.4-.158-.093-.108-.14-.257-.14-.447zm4.88 0c0-.197.045-.347.136-.45.093-.102.227-.153.403-.153.17 0 .303.05.398.151.094.101.141.252.141.452 0 .194-.047.343-.141.45-.093.103-.226.155-.398.155-.174 0-.308-.053-.4-.158-.093-.108-.14-.257-.14-.447zm4.879 0c0-.197.046-.347.137-.45.093-.102.227-.153.403-.153.17 0 .303.05.398.151.094.101.141.252.141.452 0 .194-.047.343-.141.45-.093.103-.226.155-.398.155-.175 0-.308-.053-.4-.158-.094-.108-.14-.257-.14-.447zm4.88 0c0-.197.046-.347.137-.45.092-.102.227-.153.402-.153.171 0 .304.05.398.151.095.101.142.252.142.452 0 .194-.047.343-.142.45-.092.103-.225.155-.398.155-.174 0-.307-.053-.4-.158-.093-.108-.139-.257-.139-.447zm4.88 0c0-.197.045-.347.137-.45.092-.102.227-.153.402-.153.171 0 .304.05.398.151.095.101.142.252.142.452 0 .194-.047.343-.142.45-.092.103-.225.155-.398.155-.174 0-.307-.053-.4-.158-.093-.108-.139-.257-.139-.447zm4.88 0c0-.197.045-.347.136-.45.093-.102.227-.153.403-.153.171 0 .304.05.398.151.095.101.142.252.142.452 0 .194-.047.343-.142.45-.093.103-.225.155-.398.155-.174 0-.307-.053-.4-.158-.093-.108-.139-.257-.139-.447zm4.88 0c0-.197.045-.347.136-.45.093-.102.227-.153.403-.153.171 0 .304.05.398.151.094.101.142.252.142.452 0 .194-.048.343-.142.45-.093.103-.225.155-.398.155-.174 0-.307-.053-.4-.158-.093-.108-.139-.257-.139-.447zm4.879 0c0-.197.046-.347.137-.45.093-.102.227-.153.403-.153.171 0 .304.05.398.151.094.101.142.252.142.452 0 .194-.048.343-.142.45-.093.103-.225.155-.398.155-.174 0-.308-.053-.4-.158-.093-.108-.14-.257-.14-.447zm4.88 0c0-.197.046-.347.137-.45.093-.102.227-.153.403-.153a.52.52 0 01.398.151c.094.101.141.252.141.452 0 .194-.047.343-.141.45-.093.103-.226.155-.398.155-.174 0-.308-.053-.4-.158-.093-.108-.14-.257-.14-.447zm4.88 0c0-.197.046-.347.137-.45.093-.102.227-.153.403-.153a.52.52 0 01.398.151c.094.101.141.252.141.452 0 .194-.047.343-.141.45-.093.103-.226.155-.398.155-.174 0-.308-.053-.401-.158-.092-.108-.139-.257-.139-.447zm4.88 0c0-.197.046-.347.137-.45.093-.102.227-.153.403-.153a.52.52 0 01.398.151c.094.101.141.252.141.452 0 .194-.047.343-.141.45-.093.103-.226.155-.398.155-.174 0-.308-.053-.401-.158-.093-.108-.139-.257-.139-.447zm4.88 0c0-.197.046-.347.137-.45.092-.102.227-.153.403-.153.17 0 .303.05.397.151.095.101.142.252.142.452 0 .194-.047.343-.142.45-.092.103-.225.155-.397.155-.175 0-.308-.053-.401-.158-.093-.108-.139-.257-.139-.447zm4.88 0c0-.197.045-.347.137-.45.092-.102.227-.153.402-.153.171 0 .304.05.398.151.095.101.142.252.142.452 0 .194-.047.343-.142.45-.092.103-.225.155-.398.155-.174 0-.307-.053-.4-.158-.093-.108-.139-.257-.139-.447zm4.88 0c0-.197.045-.347.136-.45.093-.102.228-.153.403-.153.171 0 .304.05.398.151.095.101.142.252.142.452 0 .194-.047.343-.142.45-.093.103-.225.155-.398.155-.174 0-.307-.053-.4-.158-.093-.108-.139-.257-.139-.447zm4.88 0c0-.197.045-.347.136-.45.093-.102.227-.153.403-.153.171 0 .304.05.398.151.095.101.142.252.142.452 0 .194-.047.343-.142.45-.093.103-.225.155-.398.155-.174 0-.307-.053-.4-.158-.093-.108-.139-.257-.139-.447zm4.88 0c0-.197.045-.347.136-.45.093-.102.227-.153.403-.153.171 0 .304.05.398.151.094.101.142.252.142.452 0 .194-.048.343-.142.45-.093.103-.225.155-.398.155-.174 0-.308-.053-.4-.158-.093-.108-.139-.257-.139-.447zm4.879 0c0-.197.046-.347.137-.45.093-.102.227-.153.403-.153.171 0 .304.05.398.151.094.101.142.252.142.452 0 .194-.048.343-.142.45-.093.103-.226.155-.398.155-.174 0-.308-.053-.4-.158-.093-.108-.14-.257-.14-.447zm4.88 0c0-.197.046-.347.137-.45.093-.102.227-.153.403-.153a.52.52 0 01.398.151c.094.101.141.252.141.452 0 .194-.047.343-.141.45-.093.103-.226.155-.398.155-.174 0-.308-.053-.401-.158-.092-.108-.139-.257-.139-.447zm4.88 0c0-.197.046-.347.137-.45.093-.102.227-.153.403-.153a.52.52 0 01.398.151c.094.101.141.252.141.452 0 .194-.047.343-.141.45-.093.103-.226.155-.398.155-.174 0-.308-.053-.401-.158-.092-.108-.139-.257-.139-.447zm4.88 0c0-.197.046-.347.137-.45.093-.102.227-.153.403-.153a.52.52 0 01.398.151c.094.101.141.252.141.452 0 .194-.047.343-.141.45-.093.103-.226.155-.398.155-.175 0-.308-.053-.401-.158-.093-.108-.139-.257-.139-.447zm4.88 0c0-.197.046-.347.137-.45.092-.102.227-.153.402-.153.171 0 .304.05.398.151.095.101.142.252.142.452 0 .194-.047.343-.142.45-.092.103-.225.155-.398.155-.174 0-.307-.053-.4-.158-.093-.108-.139-.257-.139-.447z"/></svg>