<svg viewBox="0 0 32 23" fill="none" xmlns="http://www.w3.org/2000/svg"><path fill-rule="evenodd" clip-rule="evenodd" d="M5.084 20.645c4.026 0 4.785-3.547 4.785-6.386h5.982c9.376 0 9.379-13.29.298-13.29-2.47 0-4.06 1.5-4.486 2.022-5.066 0-5.682 2.652-5.682 7.801v4.72c0 1.21-.485 1.996-1.794 1.996-1.118 0-1.647-.991-2.094-2.383-.233.126-1.866 1.01-2.093 1.156.494 1.39 1.024 4.364 5.084 4.364zm5.693-11.876c1.533 0 1.664 2.312-.109 2.312-1.494 0-1.456-2.312.109-2.312zm5.373 6.926c-1.297 0-5.085-.28-5.085-.28v7.125l3.59.051.896-5.154 11.365-.214.3 5.651 4.186.052S32 11.856 32 9.636c0-4.119-1.84-6.45-5.981-6.645-1.038-.049-2.396-.243-3.29-.289 3.898 4.751.796 12.993-6.58 12.993zm7.177 2.89l.3 4.186 2.392.052-.3-4.238h-2.392zm-7.477 4.058l2.393.051.598-4.11h-2.094l-.896 4.06z" fill="#FF862F"/></svg>