<svg width="161" height="112" fill="none" xmlns="http://www.w3.org/2000/svg"><path opacity=".2" fill-rule="evenodd" clip-rule="evenodd" d="M25.58 100.365c20.257 0 24.074-18.09 24.074-32.575h30.094C126.924 67.79 126.936 0 81.252 0 68.827 0 60.823 7.65 58.681 10.316c-25.49 0-28.587 13.527-28.587 39.791v24.076c0 6.175-2.444 10.182-9.03 10.182-5.623 0-8.286-5.057-10.533-12.153-1.17.638-9.39 5.154-10.531 5.894 2.487 7.09 5.15 22.259 25.58 22.259zM54.22 39.79c7.717 0 8.373 11.79-.547 11.79-7.519 0-7.323-11.79.546-11.79zm27.034 35.33c-6.523 0-25.581-1.435-25.581-1.435v36.347l18.056.262 4.514-26.293 57.178-1.091 1.506 28.827 21.065.263S161 55.538 161 44.211c0-21.01-9.255-32.901-30.093-33.895-5.222-.249-12.053-1.238-16.552-1.474 19.611 24.236 4.007 66.278-33.101 66.278zm36.112 14.737l1.503 21.356 12.038.263-1.505-21.62h-12.036zm-37.618 20.701l12.037.262 3.008-20.963H84.26l-4.512 20.701z" fill="#666"/></svg>