<svg width="14" height="14" viewBox="0 0 14 14" fill="none" xmlns="http://www.w3.org/2000/svg">
<path d="M6.94916 7.63636C7.1504 8.24007 7.15101 8.23987 7.1512 8.23981L6.94916 7.63636Z" fill="#FF862F"/>
<path fill-rule="evenodd" clip-rule="evenodd" d="M7 0C3.13401 0 0 3.13401 0 7C0 10.866 3.13401 14 7 14C10.866 14 14 10.866 14 7C14 3.13401 10.866 0 7 0ZM6.3043 4.62717C6.56343 4.47488 6.86809 4.41921 7.16433 4.47002C7.46057 4.52084 7.72927 4.67485 7.92283 4.90479C8.1164 5.13473 8.22234 5.42671 8.22189 5.72727C8.22189 6.02581 7.98956 6.33705 7.55072 6.62961C7.35067 6.76297 7.14608 6.86572 6.98901 6.93553C6.91137 6.97003 6.84756 6.99551 6.80465 7.01186C6.78325 7.02001 6.76721 7.02584 6.75742 7.02932L6.74726 7.03288C6.41427 7.14428 6.23439 7.5044 6.34546 7.8376C6.4566 8.17102 6.81778 8.35095 7.1512 8.23981L7.15465 8.23864L7.16169 8.23624L7.18379 8.2285C7.20197 8.22204 7.22694 8.21294 7.25774 8.20121C7.31923 8.17778 7.40457 8.1436 7.50591 8.09856C7.70679 8.00928 7.97948 7.87339 8.2567 7.68858C8.77231 7.34484 9.49433 6.70172 9.49462 5.72785C9.49543 5.12685 9.28355 4.54494 8.8965 4.08516C8.50937 3.62527 7.97198 3.31724 7.3795 3.21561C6.78701 3.11399 6.17769 3.22533 5.65943 3.52991C5.14117 3.8345 4.74743 4.31267 4.54795 4.87974C4.43132 5.21128 4.60554 5.57459 4.93708 5.69121C5.26862 5.80784 5.63193 5.63362 5.74856 5.30208C5.8483 5.01855 6.04517 4.77946 6.3043 4.62717ZM7.63642 10.1818C7.63642 10.5333 7.35151 10.8182 7.00005 10.8182C6.6486 10.8182 6.36369 10.5333 6.36369 10.1818C6.36369 9.83037 6.6486 9.54546 7.00005 9.54546C7.35151 9.54546 7.63642 9.83037 7.63642 10.1818Z" fill="#FF862F"/>
</svg>
