<svg width="20" height="20" fill="none" xmlns="http://www.w3.org/2000/svg"><path d="M17.819 16.063l-3.212-2.747a6.968 6.968 0 001.456-4.285c0-1.88-.734-3.642-2.06-4.97A6.98 6.98 0 009.03 2a6.99 6.99 0 00-4.97 2.06A6.975 6.975 0 002 9.031c0 1.878.734 3.645 2.06 4.971a6.975 6.975 0 004.971 2.06 6.97 6.97 0 004.282-1.453l3.212 2.745a.193.193 0 00.272 0l1.022-1.02a.195.195 0 00.056-.136.193.193 0 00-.056-.136zm-5.075-3.32a5.222 5.222 0 01-3.713 1.538 5.222 5.222 0 01-3.712-1.537A5.222 5.222 0 013.78 9.03c0-1.401.546-2.72 1.538-3.712A5.222 5.222 0 019.03 3.78c1.402 0 2.721.544 3.713 1.538A5.222 5.222 0 0114.28 9.03a5.218 5.218 0 01-1.537 3.713z" fill="#999"/></svg>